<svg id="Layer_1" data-name="Layer 1" xmlns="http://www.w3.org/2000/svg" viewBox="0 0 664.85 494.16"><defs><style>.cls-1{fill:#d6d6d6;}.cls-2,.cls-5{fill:none;stroke-miterlimit:10;stroke-width:0.68px;}.cls-2{stroke:#3d4752;}.cls-3{fill:#3d4752;}.cls-4{fill:#cdbbdc;}.cls-5{stroke:#000;opacity:0;}.cls-6{fill:#fff;}</style></defs><title>swim-lane-flowchart</title><rect class="cls-1" x="0.34" y="0.34" width="18.59" height="493.48" rx="4.39" ry="4.39"/><rect class="cls-1" x="9.63" y="0.34" width="9.29" height="493.48"/><rect class="cls-2" x="0.34" y="0.34" width="664.17" height="493.48" rx="4.39" ry="4.39"/><path class="cls-2" d="M2.45,130.14H666.62M2.45,252.19H666.62M2.45,372.18H666.62M21,495.55V2.07" transform="translate(-2.11 -1.73)"/><path class="cls-3" d="M14.17,88.89A2.16,2.16,0,0,0,13.24,87l.53-.78A3.12,3.12,0,0,1,15,88.9a3.48,3.48,0,0,1-2.18,3.39,4.18,4.18,0,0,1-3,0,3.62,3.62,0,0,1-2.1-4.15,2.71,2.71,0,0,1,1-1.78l.59.77a2.1,2.1,0,0,0-.82,1.73,2.55,2.55,0,0,0,2.79,2.65,2.5,2.5,0,0,0,2.8-2.62" transform="translate(-2.11 -1.73)"/><path class="cls-3" d="M12.28,79.89A2.53,2.53,0,0,1,15,82.6a2.5,2.5,0,0,1-2.75,2.7H7.89v-1h4.33c1.16,0,1.94-.53,1.94-1.73s-.78-1.73-1.94-1.73H7.89v-1h4.39" transform="translate(-2.11 -1.73)"/><path class="cls-3" d="M9.7,78.49C8,78.49,7.36,76.54,7.93,75a2,2,0,0,1,.58-.86l.67.69a1.68,1.68,0,0,0-.65,1.36c0,.92.7,1.61,1.6,1.24.8-.54.74-2,1.36-2.69A1.75,1.75,0,0,1,12.92,74c1.87,0,2.52,2,1.86,3.69a2.44,2.44,0,0,1-.76,1L13.38,78a1.94,1.94,0,0,0,.82-1.55c0-1-.83-1.76-1.72-1.26s-.74,2-1.42,2.75a1.75,1.75,0,0,1-1.36.57" transform="translate(-2.11 -1.73)"/><polyline class="cls-3" points="12.74 68.64 12.74 69.61 9.69 69.61 6.63 69.61 6.63 71.84 6.21 71.84 5.78 71.84 5.78 66.4 6.21 66.4 6.63 66.4 6.63 68.64 9.69 68.64 12.74 68.64"/><path class="cls-3" d="M14.16,64.18a2.52,2.52,0,0,0-2.79-2.65,2.64,2.64,0,1,0,0,5.27,2.51,2.51,0,0,0,2.79-2.63M9.88,60.76a4.07,4.07,0,0,1,3,0,3.76,3.76,0,0,1,0,6.83,4.18,4.18,0,0,1-3,0,3.77,3.77,0,0,1,0-6.83Z" transform="translate(-2.11 -1.73)"/><path class="cls-3" d="M7.89,57.64c1.78-.71,3.6-1.38,5.35-2.1L7.89,53.48V52h7v1c-1.94,0-3.92,0-5.82,0l5.82,2.31v.62c-1.94.78-3.91,1.51-5.82,2.32h5.82v.94h-7V57.64" transform="translate(-2.11 -1.73)"/><polyline class="cls-3" points="11.88 47.57 11.88 43.93 12.31 43.93 12.74 43.93 12.74 48.54 9.26 48.54 5.78 48.54 5.78 44.08 6.21 44.08 6.63 44.08 6.63 47.57 7.68 47.57 8.72 47.57 8.72 44.28 9.14 44.28 9.56 44.28 9.56 47.57 10.72 47.57 11.88 47.57"/><path class="cls-3" d="M9.82,40.64c-1.27,0-1.1,1.48-1.1,2.75h2.22c0-1.29.14-2.75-1.12-2.75m0-1a1.85,1.85,0,0,1,1.84,1.69l3.2-1.95v1.18l-3.1,1.77v1h3.1v1h-7C7.88,42.15,7.59,39.65,9.82,39.65Z" transform="translate(-2.11 -1.73)"/><path class="cls-3" d="M9.7,205c-1.73,0-2.34-1.95-1.77-3.53a2,2,0,0,1,.58-.86l.67.69a1.68,1.68,0,0,0-.65,1.36c0,.92.7,1.61,1.6,1.24.8-.54.74-2,1.36-2.69a1.75,1.75,0,0,1,1.43-.67c1.87,0,2.52,2,1.86,3.69a2.44,2.44,0,0,1-.76,1l-.64-.76a1.94,1.94,0,0,0,.82-1.55c0-1-.83-1.76-1.72-1.26s-.74,2-1.42,2.75A1.75,1.75,0,0,1,9.7,205" transform="translate(-2.11 -1.73)"/><path class="cls-3" d="M12.29,197.85v-2.61L9,196.54m5.83,2.35V200l-7-3v-.89l7-3v1.1l-1.71.71v3.3Z" transform="translate(-2.11 -1.73)"/><polyline class="cls-3" points="11.88 189.47 11.88 186.36 12.31 186.36 12.74 186.36 12.74 190.45 9.26 190.45 5.78 190.45 5.78 189.47 8.83 189.47 11.88 189.47"/><polyline class="cls-3" points="11.88 184.45 11.88 180.81 12.31 180.81 12.74 180.81 12.74 185.42 9.26 185.42 5.78 185.42 5.78 180.95 6.21 180.95 6.63 180.95 6.63 184.45 7.68 184.45 8.72 184.45 8.72 181.16 9.14 181.16 9.56 181.16 9.56 184.45 10.72 184.45 11.88 184.45"/><path class="cls-3" d="M9.7,181.48c-1.73,0-2.34-1.95-1.77-3.53a2,2,0,0,1,.58-.86l.67.69a1.68,1.68,0,0,0-.65,1.36c0,.92.7,1.61,1.6,1.24.8-.54.74-2,1.36-2.69a1.75,1.75,0,0,1,1.43-.67c1.87,0,2.52,2,1.86,3.69a2.44,2.44,0,0,1-.76,1l-.64-.76a1.94,1.94,0,0,0,.82-1.55c0-1-.83-1.76-1.72-1.26s-.74,2-1.42,2.75a1.75,1.75,0,0,1-1.36.57" transform="translate(-2.11 -1.73)"/><path class="cls-3" d="M7.89,345.82c1.78-.71,3.6-1.38,5.35-2.1l-5.35-2.06v-1.51h7v1c-1.94,0-3.92,0-5.82,0l5.82,2.31v.62c-1.94.78-3.91,1.51-5.82,2.32h5.82v.94h-7v-1.51" transform="translate(-2.11 -1.73)"/><path class="cls-3" d="M12.29,337.13v-2.61L9,335.82m5.83,2.35v1.08l-7-3v-.89l7-3v1.1l-1.71.71v3.3Z" transform="translate(-2.11 -1.73)"/><path class="cls-3" d="M7.89,330.2c1.85-1.22,3.74-2.42,5.57-3.66H7.89v-1h7v1.23C13,328,11,329.23,9.17,330.49h5.69v1h-7V330.2" transform="translate(-2.11 -1.73)"/><path class="cls-3" d="M12.29,322.54v-2.61L9,321.23m5.83,2.35v1.08l-7-3v-.89l7-3v1.1l-1.71.71v3.3Z" transform="translate(-2.11 -1.73)"/><path class="cls-3" d="M14.42,311.07a5.3,5.3,0,0,1,.33,4.11,3.43,3.43,0,0,1-3.39,2.22c-2.29,0-3.57-1.44-3.65-3.71a3.53,3.53,0,0,1,.9-2.58l.71.68a2.43,2.43,0,0,0-.76,1.89,2.56,2.56,0,0,0,2.79,2.66,2.55,2.55,0,0,0,2.79-2.69,3.23,3.23,0,0,0-.34-1.62H11.88v1.54h-.83v-2.51h3.37" transform="translate(-2.11 -1.73)"/><polyline class="cls-3" points="11.88 306.69 11.88 303.05 12.31 303.05 12.74 303.05 12.74 307.67 9.26 307.67 5.78 307.67 5.78 303.2 6.21 303.2 6.63 303.2 6.63 306.69 7.68 306.69 8.72 306.69 8.72 303.41 9.14 303.41 9.56 303.41 9.56 306.69 10.72 306.69 11.88 306.69"/><path class="cls-3" d="M7.89,302c1.78-.71,3.6-1.38,5.35-2.1l-5.35-2.06V296.3h7v1c-1.94,0-3.92,0-5.82,0l5.82,2.31v.62c-1.94.78-3.91,1.51-5.82,2.32h5.82v.94h-7V302" transform="translate(-2.11 -1.73)"/><polyline class="cls-3" points="11.88 291.9 11.88 288.26 12.31 288.26 12.74 288.26 12.74 292.87 9.26 292.87 5.78 292.87 5.78 288.41 6.21 288.41 6.63 288.41 6.63 291.9 7.68 291.9 8.72 291.9 8.72 288.62 9.14 288.62 9.56 288.62 9.56 291.9 10.72 291.9 11.88 291.9"/><path class="cls-3" d="M7.89,287.43c1.85-1.22,3.74-2.42,5.57-3.66H7.89v-1h7V284c-1.89,1.24-3.82,2.44-5.69,3.7h5.69v1h-7v-1.27" transform="translate(-2.11 -1.73)"/><polyline class="cls-3" points="12.74 276.93 12.74 277.9 9.69 277.9 6.63 277.9 6.63 280.14 6.21 280.14 5.78 280.14 5.78 274.7 6.21 274.7 6.63 274.7 6.63 276.93 9.69 276.93 12.74 276.93"/><path class="cls-3" d="M14.17,480.84a2.16,2.16,0,0,0-.92-1.87l.53-.78A3.12,3.12,0,0,1,15,480.85a3.48,3.48,0,0,1-2.18,3.39,4.18,4.18,0,0,1-3,0,3.62,3.62,0,0,1-2.1-4.15,2.71,2.71,0,0,1,1-1.78l.59.77a2.1,2.1,0,0,0-.82,1.73,2.55,2.55,0,0,0,2.79,2.65,2.5,2.5,0,0,0,2.8-2.62" transform="translate(-2.11 -1.73)"/><path class="cls-3" d="M9.82,473.47c-1.27,0-1.1,1.48-1.1,2.75h2.22c0-1.29.14-2.75-1.12-2.75m0-1a1.85,1.85,0,0,1,1.84,1.69l3.2-1.95v1.18l-3.1,1.77v1h3.1v1h-7C7.88,475,7.59,472.49,9.82,472.49Z" transform="translate(-2.11 -1.73)"/><polyline class="cls-3" points="11.88 468.45 11.88 464.81 12.31 464.81 12.74 464.81 12.74 469.42 9.26 469.42 5.78 469.42 5.78 464.96 6.21 464.96 6.63 464.96 6.63 468.45 7.68 468.45 8.72 468.45 8.72 465.17 9.14 465.17 9.56 465.17 9.56 468.45 10.72 468.45 11.88 468.45"/><path class="cls-3" d="M11.37,460.14c-1.77,0-2.59,1.15-2.64,2.91v1.22H14v-1.22c-.06-1.75-.88-2.91-2.63-2.91m-3.48,2.71c.11-2.23,1.18-3.76,3.48-3.76a3.25,3.25,0,0,1,3.27,2.42,14.56,14.56,0,0,1,.22,3.73h-7Z" transform="translate(-2.11 -1.73)"/><polyline class="cls-3" points="12.74 455.05 12.74 456.03 9.26 456.03 5.78 456.03 5.78 455.05 9.26 455.05 12.74 455.05"/><polyline class="cls-3" points="12.74 450.92 12.74 451.9 9.69 451.9 6.63 451.9 6.63 454.13 6.21 454.13 5.78 454.13 5.78 448.69 6.21 448.69 6.63 448.69 6.63 450.92 9.69 450.92 12.74 450.92"/><path class="cls-3" d="M11.37,442.08c-1.77,0-2.59,1.15-2.64,2.91v1.22H14V445c-.06-1.75-.88-2.91-2.63-2.91m-3.48,2.71C8,442.56,9.07,441,11.37,441a3.25,3.25,0,0,1,3.27,2.42,14.56,14.56,0,0,1,.22,3.73h-7Z" transform="translate(-2.11 -1.73)"/><polyline class="cls-3" points="11.88 436.99 11.88 433.35 12.31 433.35 12.74 433.35 12.74 437.96 9.26 437.96 5.78 437.96 5.78 433.5 6.21 433.5 6.63 433.5 6.63 436.99 7.68 436.99 8.72 436.99 8.72 433.7 9.14 433.7 9.56 433.7 9.56 436.99 10.72 436.99 11.88 436.99"/><path class="cls-3" d="M9.83,430.16c-1.25,0-1.12,1.4-1.11,2.66H11c0-1.27.11-2.66-1.14-2.66m0-1c1.84,0,2.06,1.69,2,3.64h3.06v1h-7v-2.12C7.91,430.22,8.39,429.17,9.83,429.17Z" transform="translate(-2.11 -1.73)"/><path class="cls-3" d="M12.29,427.2v-2.61L9,425.89m5.83,2.35v1.08l-7-3v-.89l7-3v1.1l-1.71.71v3.3Z" transform="translate(-2.11 -1.73)"/><path class="cls-3" d="M9.82,417.8c-1.27,0-1.1,1.48-1.1,2.75h2.22c0-1.29.14-2.75-1.12-2.75m0-1a1.85,1.85,0,0,1,1.84,1.69l3.2-1.95v1.18l-3.1,1.77v1h3.1v1h-7C7.88,419.32,7.59,416.82,9.82,416.82Z" transform="translate(-2.11 -1.73)"/><polyline class="cls-3" points="12.74 411.44 12.74 412.41 9.69 412.41 6.63 412.41 6.63 414.64 6.21 414.64 5.78 414.64 5.78 409.2 6.21 409.2 6.63 409.2 6.63 411.44 9.69 411.44 12.74 411.44"/><path class="cls-3" d="M7.89,408.5c1.78-.71,3.6-1.38,5.35-2.1l-5.35-2.06v-1.51h7v1c-1.94,0-3.92,0-5.82,0l5.82,2.31v.62c-1.94.78-3.91,1.51-5.82,2.32h5.82V410h-7V408.5" transform="translate(-2.11 -1.73)"/><polyline class="cls-3" points="11.88 398.42 11.88 394.79 12.31 394.79 12.74 394.79 12.74 399.4 9.26 399.4 5.78 399.4 5.78 394.93 6.21 394.93 6.63 394.93 6.63 398.42 7.68 398.42 8.72 398.42 8.72 395.14 9.14 395.14 9.56 395.14 9.56 398.42 10.72 398.42 11.88 398.42"/><path class="cls-3" d="M7.89,394c1.85-1.22,3.74-2.42,5.57-3.66H7.89v-1h7v1.23C13,391.79,11,393,9.17,394.25h5.69v1h-7V394" transform="translate(-2.11 -1.73)"/><polyline class="cls-3" points="12.74 383.45 12.74 384.43 9.69 384.43 6.63 384.43 6.63 386.66 6.21 386.66 5.78 386.66 5.78 381.22 6.21 381.22 6.63 381.22 6.63 383.45 9.69 383.45 12.74 383.45"/><path class="cls-2" d="M118.42,62.47h9.16s0,0,0,0l0,0h9.16" transform="translate(-2.11 -1.73)"/><polygon class="cls-3" points="134.69 60.81 129.89 62.36 129.89 59.22 134.69 60.81"/><path class="cls-3" d="M132.35,63.62l3.38-1.08-3.38-1.12Zm4.46-1.45v.71l-5.14,1.69V60.51Z" transform="translate(-2.11 -1.73)"/><path class="cls-2" d="M169.76,79.37V124a0,0,0,0,1,0,0h0v44.65" transform="translate(-2.11 -1.73)"/><line class="cls-2" x1="167.65" y1="77.64" x2="167.65" y2="76.62"/><polygon class="cls-3" points="167.61 166.94 166.03 162.1 169.17 162.1 167.61 166.94"/><path class="cls-3" d="M168.61,164.18l1.12,3.38,1.08-3.38Zm1.45,4.5h-.71l-1.66-5.17h4.06Z" transform="translate(-2.11 -1.73)"/><line class="cls-2" x1="199.56" y1="184.01" x2="224.91" y2="184.01"/><polygon class="cls-3" points="224.91 184.01 220.07 185.56 220.07 182.42 224.91 184.01"/><path class="cls-3" d="M222.52,186.82l3.38-1.08-3.38-1.12Zm4.66-1.39V186l-5.34,1.72v-4.06Z" transform="translate(-2.11 -1.73)"/><path class="cls-4" d="M136.81,42.26h65.91V82.82c-11-6.76-17.85-6.76-22-6.76-6.59,0-15.38,6.76-22,6.76-4.12,0-11,0-22-6.76Z" transform="translate(-2.11 -1.73)"/><path class="cls-5" d="M136.81,42.26h65.91V82.82c-11-6.76-17.85-6.76-22-6.76-6.59,0-15.38,6.76-22,6.76-4.12,0-11,0-22-6.76Z" transform="translate(-2.11 -1.73)"/><path class="cls-3" d="M148,66.52a2.16,2.16,0,0,0,1.87-.92l.78.53A3.12,3.12,0,0,1,148,67.38a3.48,3.48,0,0,1-3.39-2.18,4.18,4.18,0,0,1,0-3,3.62,3.62,0,0,1,4.15-2.1,2.71,2.71,0,0,1,1.78,1l-.77.59a2.1,2.1,0,0,0-1.73-.82,2.55,2.55,0,0,0-2.65,2.79,2.5,2.5,0,0,0,2.62,2.8" transform="translate(-2.11 -1.73)"/><path class="cls-3" d="M151.56,67.21c0-1.55,0-3.17,0-4.66h.88c0,.2,0,.58,0,.79h0a1.58,1.58,0,0,1,1.79-.88l0,.86a1.33,1.33,0,0,0-1.73,1.45v2.45h-.92" transform="translate(-2.11 -1.73)"/><path class="cls-3" d="M157.05,62.42c1.57,0,2.31,1.06,2.23,2.73h-3.7a1.46,1.46,0,0,0,1.51,1.42,1.55,1.55,0,0,0,1.36-.71l.65.52a2.33,2.33,0,0,1-2,1,2.46,2.46,0,0,1,0-4.92m1.31,2a1.29,1.29,0,0,0-1.87-1.21,1.36,1.36,0,0,0-.9,1.21Z" transform="translate(-2.11 -1.73)"/><path class="cls-3" d="M162.78,63.18a1.69,1.69,0,0,0,0,3.37,1.69,1.69,0,0,0,0-3.37m-.17-.77a2.06,2.06,0,0,1,1.68.83V59.77h.92v7.44h-.9a4.53,4.53,0,0,0,0-.74,1.94,1.94,0,0,1-1.68.87,2.23,2.23,0,0,1-2.35-2.47A2.25,2.25,0,0,1,162.61,62.42Z" transform="translate(-2.11 -1.73)"/><path class="cls-3" d="M167.3,60.26a.61.61,0,0,1,.62.6.61.61,0,1,1-.62-.6m.46,6.94h-.92V62.54h.92v4.66Z" transform="translate(-2.11 -1.73)"/><path class="cls-3" d="M170.86,67.28c-.9,0-1.37-.52-1.36-1.46V63.3h-.9v-.76h.9V61.21h.91v1.34h1.24v.76h-1.24v2.43c0,.53.16.78.66.79a1.33,1.33,0,0,0,.54-.12l0,.76a2.35,2.35,0,0,1-.79.13" transform="translate(-2.11 -1.73)"/><path class="cls-3" d="M177.06,60.45c-1,0-.81,1.13-.83,2.1h1.08v.76h-1.08v3.9h-.92V63.3h-.92v-.76h.92v-1c-.06-1.41.9-2.14,2.32-1.85l-.11.8a1.63,1.63,0,0,0-.46-.07" transform="translate(-2.11 -1.73)"/><path class="cls-3" d="M180.37,66.56a1.69,1.69,0,1,0-1.55-1.69,1.5,1.5,0,0,0,1.55,1.69m0-4.14a2.46,2.46,0,1,1-2.51,2.45A2.31,2.31,0,0,1,180.37,62.42Z" transform="translate(-2.11 -1.73)"/><path class="cls-3" d="M184.17,67.21c0-1.55,0-3.17,0-4.66H185c0,.2,0,.58,0,.79h0a1.58,1.58,0,0,1,1.79-.88l0,.86a1.33,1.33,0,0,0-1.73,1.45v2.45h-.92" transform="translate(-2.11 -1.73)"/><path class="cls-3" d="M188.64,63.31a1.63,1.63,0,0,1,1.49-.9,1.46,1.46,0,0,1,1.45.93,1.71,1.71,0,0,1,1.58-.93c1.16,0,1.74.74,1.74,1.9v2.89H194V64.62c0-.8-.24-1.43-1-1.43-1.68,0-1.06,2.4-1.18,4h-.92V64.43c0-.74-.26-1.24-1-1.24s-1.19.71-1.19,1.53v2.48h-.92c0-1.55,0-3.17,0-4.66h.88c0,.2,0,.55,0,.77h0" transform="translate(-2.11 -1.73)"/><rect class="cls-4" x="43.6" y="40.53" width="72.7" height="40.39"/><rect class="cls-5" x="43.6" y="40.53" width="72.7" height="40.39"/><path class="cls-3" d="M52.34,58.2a2.16,2.16,0,0,0,1.87-.92l.78.53a3.12,3.12,0,0,1-2.66,1.26,3.48,3.48,0,0,1-3.39-2.18,4.18,4.18,0,0,1,0-3,3.62,3.62,0,0,1,4.15-2.1,2.71,2.71,0,0,1,1.78,1l-.77.59a2.1,2.1,0,0,0-1.73-.82,2.55,2.55,0,0,0-2.65,2.79,2.5,2.5,0,0,0,2.62,2.8" transform="translate(-2.11 -1.73)"/><path class="cls-3" d="M60,54.23c0,1.55,0,3.17,0,4.66h-.88c0-.2,0-.59-.06-.77a1.71,1.71,0,0,1-1.52.9,1.66,1.66,0,0,1-1.74-1.9V54.23h.92v2.58c0,.83.24,1.44,1.06,1.44s1.25-.69,1.25-1.53V54.23H60" transform="translate(-2.11 -1.73)"/><path class="cls-3" d="M61.48,56.08c-.61-1.52,1.15-2.41,2.6-1.78a1.58,1.58,0,0,1,.73.57l-.64.54a1.24,1.24,0,0,0-1.08-.58c-.46,0-.87.15-.87.61,0,.72,1.11.62,1.68.89a1.32,1.32,0,0,1,.94,1.19c.07,1.9-3,1.84-3.74.67l.66-.56a1.51,1.51,0,0,0,1.24.65c.51,0,.92-.17.92-.68,0-.89-1.54-.62-2.13-1.15a1,1,0,0,1-.31-.36" transform="translate(-2.11 -1.73)"/><path class="cls-3" d="M67.5,59c-.9,0-1.37-.52-1.36-1.46V55h-.9v-.76h.9V52.89h.91v1.34H68.3V55H67.06v2.43c0,.53.16.78.66.79a1.33,1.33,0,0,0,.54-.12l0,.76a2.35,2.35,0,0,1-.79.13" transform="translate(-2.11 -1.73)"/><path class="cls-3" d="M71.46,58.24a1.69,1.69,0,1,0-1.55-1.69,1.5,1.5,0,0,0,1.55,1.69m0-4.14a2.46,2.46,0,1,1-2.51,2.45A2.31,2.31,0,0,1,71.46,54.1Z" transform="translate(-2.11 -1.73)"/><path class="cls-3" d="M76.16,55a1.63,1.63,0,0,1,1.49-.9,1.46,1.46,0,0,1,1.45.93,1.71,1.71,0,0,1,1.58-.93c1.16,0,1.74.74,1.74,1.9v2.89h-.92V56.3c0-.8-.24-1.43-1-1.43-1.68,0-1.06,2.4-1.18,4h-.92V56.12c0-.74-.26-1.24-1-1.24s-1.19.71-1.19,1.53v2.48h-.92c0-1.55,0-3.17,0-4.66h.88c0,.2,0,.55,0,.77h0" transform="translate(-2.11 -1.73)"/><path class="cls-3" d="M86.08,54.1c1.57,0,2.31,1.06,2.23,2.73h-3.7a1.46,1.46,0,0,0,1.51,1.42,1.55,1.55,0,0,0,1.36-.71l.65.52a2.33,2.33,0,0,1-2,1,2.46,2.46,0,0,1,0-4.92m1.31,2a1.29,1.29,0,0,0-1.87-1.21,1.36,1.36,0,0,0-.9,1.21Z" transform="translate(-2.11 -1.73)"/><path class="cls-3" d="M89.61,58.89c0-1.55,0-3.17,0-4.66h.88c0,.2,0,.58,0,.79h0a1.58,1.58,0,0,1,1.79-.88l0,.86a1.33,1.33,0,0,0-1.73,1.45v2.45h-.92" transform="translate(-2.11 -1.73)"/><path class="cls-3" d="M98.15,58.24a1.69,1.69,0,0,0,0-3.37,1.69,1.69,0,0,0,0,3.37m.16.78a2,2,0,0,1-1.68-.87h0v.74h-.9V51.45h.92v3.47h0a2,2,0,0,1,1.66-.83,2.46,2.46,0,0,1,0,4.92Z" transform="translate(-2.11 -1.73)"/><path class="cls-3" d="M106.07,54.23c0,1.55,0,3.17,0,4.66h-.88c0-.2,0-.59-.06-.77a1.71,1.71,0,0,1-1.52.9,1.66,1.66,0,0,1-1.74-1.9V54.23h.92v2.58c0,.83.24,1.44,1.06,1.44s1.25-.69,1.25-1.53V54.23h.92" transform="translate(-2.11 -1.73)"/><path class="cls-3" d="M108,54.23c.49,1.22.94,2.47,1.47,3.66l1.29-3.66h1L109.47,60a1.7,1.7,0,0,1-2.22,1.19l.09-.82a1,1,0,0,0,1-.12,5.75,5.75,0,0,0,.62-1.36l-2-4.66h1" transform="translate(-2.11 -1.73)"/><path class="cls-3" d="M112.46,56.08c-.61-1.52,1.15-2.41,2.6-1.78a1.58,1.58,0,0,1,.73.57l-.64.54a1.24,1.24,0,0,0-1.08-.58c-.46,0-.87.15-.87.61,0,.72,1.11.62,1.68.89a1.32,1.32,0,0,1,.94,1.19c.07,1.9-3,1.84-3.74.67l.66-.56a1.51,1.51,0,0,0,1.24.65c.51,0,.92-.17.92-.68,0-.89-1.54-.62-2.13-1.15a1,1,0,0,1-.31-.36" transform="translate(-2.11 -1.73)"/><path class="cls-3" d="M67.58,71.69a1.69,1.69,0,0,0,0-3.37,1.69,1.69,0,0,0,0,3.37m.16.78a1.94,1.94,0,0,1-1.64-.83h0V74.7h-.92v-7H66v.73h0a1.87,1.87,0,0,1,1.68-.86,2.46,2.46,0,0,1,0,4.92Z" transform="translate(-2.11 -1.73)"/><path class="cls-3" d="M71.37,72.34c0-1.55,0-3.17,0-4.66h.88c0,.2,0,.58,0,.79h0a1.58,1.58,0,0,1,1.79-.88l0,.86a1.33,1.33,0,0,0-1.73,1.45v2.45h-.92" transform="translate(-2.11 -1.73)"/><path class="cls-3" d="M77,71.69A1.69,1.69,0,1,0,75.41,70,1.5,1.5,0,0,0,77,71.69m0-4.14A2.46,2.46,0,1,1,74.45,70,2.31,2.31,0,0,1,77,67.55Z" transform="translate(-2.11 -1.73)"/><path class="cls-3" d="M82.95,68.32a1.69,1.69,0,0,0,0,3.37,1.69,1.69,0,0,0,0-3.37m-.17-.77a2.06,2.06,0,0,1,1.68.83V64.91h.92v7.44h-.9a4.53,4.53,0,0,0,0-.74,1.94,1.94,0,0,1-1.68.87A2.23,2.23,0,0,1,80.44,70,2.25,2.25,0,0,1,82.78,67.55Z" transform="translate(-2.11 -1.73)"/><path class="cls-3" d="M91.12,67.68c0,1.55,0,3.17,0,4.66h-.88c0-.2,0-.59-.06-.77a1.71,1.71,0,0,1-1.52.9A1.66,1.66,0,0,1,87,70.57V67.68h.92v2.58c0,.83.24,1.44,1.06,1.44S90.2,71,90.2,70.16V67.68h.92" transform="translate(-2.11 -1.73)"/><path class="cls-3" d="M92.42,70a2.28,2.28,0,0,1,2.49-2.46,2.21,2.21,0,0,1,1.75.77l-.67.54a1.28,1.28,0,0,0-1.07-.53,1.69,1.69,0,0,0,0,3.36,1.33,1.33,0,0,0,1.12-.51l.62.56a2.15,2.15,0,0,1-1.74.73A2.31,2.31,0,0,1,92.42,70" transform="translate(-2.11 -1.73)"/><path class="cls-3" d="M99.07,72.42c-.9,0-1.37-.52-1.36-1.46V68.44h-.9v-.76h.9V66.34h.91v1.34h1.24v.76H98.63v2.43c0,.53.16.78.66.79a1.33,1.33,0,0,0,.54-.12l0,.76a2.35,2.35,0,0,1-.79.13" transform="translate(-2.11 -1.73)"/><path class="cls-1" d="M101.18,168.84c7,0,12.78,6.86,12.78,15.38s-5.75,15.38-12.78,15.38H62.85c-7.06,0-12.78-6.9-12.78-15.38s5.71-15.38,12.78-15.38Z" transform="translate(-2.11 -1.73)"/><path class="cls-5" d="M101.18,168.84c7,0,12.78,6.86,12.78,15.38s-5.75,15.38-12.78,15.38H62.85c-7.06,0-12.78-6.9-12.78-15.38s5.71-15.38,12.78-15.38Z" transform="translate(-2.11 -1.73)"/><path class="cls-3" d="M61.91,182.14c0-1.73,1.95-2.34,3.53-1.77a2,2,0,0,1,.86.58l-.69.67a1.68,1.68,0,0,0-1.36-.65c-.92,0-1.61.7-1.24,1.6.54.8,2,.74,2.69,1.36a1.75,1.75,0,0,1,.67,1.43c0,1.87-2,2.52-3.69,1.86a2.44,2.44,0,0,1-1-.76l.76-.64a1.94,1.94,0,0,0,1.55.82c1,0,1.76-.83,1.26-1.72s-2-.74-2.75-1.42a1.75,1.75,0,0,1-.57-1.36" transform="translate(-2.11 -1.73)"/><path class="cls-3" d="M69.25,186.69a1.32,1.32,0,0,0,1.35-1.61c-1,0-2.3,0-2.3.89,0,.53.42.72,1,.73m-1.9-.71c0-1.5,1.7-1.53,3.25-1.57.06-.79-.42-1.15-1.15-1.15a1.94,1.94,0,0,0-1.33.54l-.49-.59a2.75,2.75,0,0,1,1.91-.7,1.73,1.73,0,0,1,1.95,1.83,29.05,29.05,0,0,0,.07,3h-.84a3.1,3.1,0,0,1-.08-.67h0a1.79,1.79,0,0,1-1.56.79C68.07,187.41,67.35,187,67.35,186Z" transform="translate(-2.11 -1.73)"/><polyline class="cls-3" points="71.85 185.56 70.93 185.56 70.93 181.84 70.93 178.13 71.85 178.13 71.85 181.84 71.85 185.56"/><path class="cls-3" d="M77.68,182.51c1.57,0,2.31,1.06,2.23,2.73h-3.7a1.46,1.46,0,0,0,1.51,1.42,1.55,1.55,0,0,0,1.36-.71l.65.52a2.33,2.33,0,0,1-2,1,2.46,2.46,0,0,1,0-4.92m1.31,2a1.29,1.29,0,0,0-1.87-1.21,1.36,1.36,0,0,0-.9,1.21Z" transform="translate(-2.11 -1.73)"/><path class="cls-3" d="M81,184.48c-.61-1.52,1.15-2.41,2.6-1.78a1.58,1.58,0,0,1,.73.57l-.64.54a1.24,1.24,0,0,0-1.08-.58c-.46,0-.87.15-.87.61,0,.72,1.11.62,1.68.89a1.32,1.32,0,0,1,.94,1.19c.07,1.9-3,1.84-3.74.67l.66-.56a1.51,1.51,0,0,0,1.24.65c.51,0,.92-.17.92-.68,0-.89-1.54-.62-2.13-1.15a1,1,0,0,1-.31-.36" transform="translate(-2.11 -1.73)"/><path class="cls-3" d="M87.78,185a2.28,2.28,0,0,1,2.49-2.46,2.21,2.21,0,0,1,1.75.77l-.67.54a1.28,1.28,0,0,0-1.07-.53,1.69,1.69,0,0,0,0,3.36,1.33,1.33,0,0,0,1.12-.51l.62.56a2.15,2.15,0,0,1-1.74.73A2.31,2.31,0,0,1,87.78,185" transform="translate(-2.11 -1.73)"/><path class="cls-3" d="M94.5,186.69a1.32,1.32,0,0,0,1.35-1.61c-1,0-2.3,0-2.3.89,0,.53.42.72,1,.73M92.6,186c0-1.5,1.7-1.53,3.25-1.57.06-.79-.42-1.15-1.15-1.15a1.94,1.94,0,0,0-1.33.54l-.49-.59a2.75,2.75,0,0,1,1.91-.7,1.73,1.73,0,0,1,1.95,1.83,29,29,0,0,0,.07,3H96a3.1,3.1,0,0,1-.08-.67h0a1.79,1.79,0,0,1-1.56.79C93.33,187.41,92.6,187,92.6,186Z" transform="translate(-2.11 -1.73)"/><polyline class="cls-3" points="97.11 185.56 96.18 185.56 96.18 181.84 96.18 178.13 97.11 178.13 97.11 181.84 97.11 185.56"/><polyline class="cls-3" points="99.66 185.56 98.74 185.56 98.74 181.84 98.74 178.13 99.66 178.13 99.66 181.84 99.66 185.56"/><line class="cls-2" x1="111.84" y1="182.49" x2="135.5" y2="182.49"/><polygon class="cls-3" points="111.84 182.82 111.81 182.82 111.84 182.49 111.81 182.15 111.84 182.15 111.84 182.82"/><polygon class="cls-3" points="135.5 182.49 130.67 184.04 130.67 180.9 135.5 182.49"/><path class="cls-3" d="M133.12,185.3l3.38-1.08-3.38-1.12Zm4.66-1.39v.61l-5.34,1.72v-4.06Z" transform="translate(-2.11 -1.73)"/><rect class="cls-4" x="135.67" y="166.94" width="63.88" height="34.14"/><rect class="cls-5" x="135.67" y="166.94" width="63.88" height="34.14"/><path class="cls-3" d="M147.43,188.29a2.8,2.8,0,1,0-2.63-2.79,2.52,2.52,0,0,0,2.63,2.79m3.42-4.28a4.07,4.07,0,0,1,0,3,3.76,3.76,0,0,1-6.83,0,4.18,4.18,0,0,1,0-3,3.77,3.77,0,0,1,6.83,0Z" transform="translate(-2.11 -1.73)"/><path class="cls-3" d="M152.41,189c0-1.55,0-3.17,0-4.66h.88c0,.2,0,.58,0,.79h0a1.58,1.58,0,0,1,1.79-.88l0,.86a1.33,1.33,0,0,0-1.73,1.45V189h-.92" transform="translate(-2.11 -1.73)"/><path class="cls-3" d="M158,185a1.69,1.69,0,0,0,0,3.37,1.69,1.69,0,0,0,0-3.37m-.17-.77a2.06,2.06,0,0,1,1.68.83v-3.47h.92V189h-.9a4.53,4.53,0,0,0,0-.74,1.94,1.94,0,0,1-1.68.87,2.23,2.23,0,0,1-2.35-2.47A2.25,2.25,0,0,1,157.82,184.2Z" transform="translate(-2.11 -1.73)"/><path class="cls-3" d="M164.14,184.2c1.57,0,2.31,1.06,2.23,2.73h-3.7a1.46,1.46,0,0,0,1.51,1.42,1.55,1.55,0,0,0,1.36-.71l.65.52a2.33,2.33,0,0,1-2,1,2.46,2.46,0,0,1,0-4.92m1.31,2a1.29,1.29,0,0,0-1.87-1.21,1.36,1.36,0,0,0-.9,1.21Z" transform="translate(-2.11 -1.73)"/><path class="cls-3" d="M167.68,189c0-1.55,0-3.17,0-4.66h.88c0,.2,0,.58,0,.79h0a1.58,1.58,0,0,1,1.79-.88l0,.86a1.33,1.33,0,0,0-1.73,1.45V189h-.92" transform="translate(-2.11 -1.73)"/><path class="cls-3" d="M175.84,184.2c1.57,0,2.31,1.06,2.23,2.73h-3.7a1.46,1.46,0,0,0,1.51,1.42,1.55,1.55,0,0,0,1.36-.71l.65.52a2.33,2.33,0,0,1-2,1,2.46,2.46,0,0,1,0-4.92m1.31,2a1.29,1.29,0,0,0-1.87-1.21,1.36,1.36,0,0,0-.9,1.21Z" transform="translate(-2.11 -1.73)"/><path class="cls-3" d="M179.37,189c0-1.55,0-3.17,0-4.66h.88c0,.2,0,.55,0,.77h0a1.63,1.63,0,0,1,1.51-.9c1.16,0,1.74.74,1.74,1.9V189h-.92V186.4c0-.83-.24-1.43-1.06-1.43s-1.25.69-1.25,1.53V189h-.92" transform="translate(-2.11 -1.73)"/><path class="cls-3" d="M186.58,189.07c-.9,0-1.37-.52-1.36-1.46v-2.53h-.9v-.76h.9V183h.91v1.34h1.24v.76h-1.24v2.43c0,.53.16.78.66.79a1.33,1.33,0,0,0,.54-.12l0,.76a2.35,2.35,0,0,1-.79.13" transform="translate(-2.11 -1.73)"/><path class="cls-3" d="M188.33,189c0-1.55,0-3.17,0-4.66h.88c0,.2,0,.58,0,.79h0a1.58,1.58,0,0,1,1.79-.88l0,.86a1.33,1.33,0,0,0-1.73,1.45V189h-.92" transform="translate(-2.11 -1.73)"/><path class="cls-3" d="M192.22,184.32c.49,1.22.94,2.47,1.47,3.66l1.29-3.66h1l-2.26,5.76a1.7,1.7,0,0,1-2.22,1.19l.09-.82a1,1,0,0,0,1-.12,5.75,5.75,0,0,0,.62-1.36l-2-4.66h1" transform="translate(-2.11 -1.73)"/><path class="cls-2" d="M82,168.84V125.78a0,0,0,0,1,0,0,0,0,0,0,0,0,0V82.65" transform="translate(-2.11 -1.73)"/><polygon class="cls-3" points="81.53 85.75 78.38 85.75 79.97 80.92 81.53 85.75"/><path class="cls-3" d="M81,87.15h2.2l-1.08-3.38Zm3.14.68H80.06l1.66-5.17h.71Z" transform="translate(-2.11 -1.73)"/><path class="cls-2" d="M261.33,205.62v92.31h0V390.2" transform="translate(-2.11 -1.73)"/><polygon class="cls-3" points="259.25 388.46 257.69 383.63 260.8 383.63 259.25 388.46"/><path class="cls-3" d="M260.28,385.7l1.08,3.38,1.12-3.38Zm1.35,4.73-.27-.24-.27.24L259.33,385h4.06Z" transform="translate(-2.11 -1.73)"/><polygon class="cls-1" points="259.25 388.46 295.24 418.78 259.25 449.13 223.25 418.78 259.25 388.46"/><polygon class="cls-5" points="259.25 388.46 295.24 418.78 259.25 449.13 223.25 418.78 259.25 388.46"/><path class="cls-3" d="M251.47,416.28a2.16,2.16,0,0,0,1.87-.92l.78.53a3.12,3.12,0,0,1-2.66,1.26,3.48,3.48,0,0,1-3.39-2.18,4.18,4.18,0,0,1,0-3,3.62,3.62,0,0,1,4.15-2.1,2.71,2.71,0,0,1,1.78,1l-.77.59a2.1,2.1,0,0,0-1.73-.82,2.55,2.55,0,0,0-2.65,2.79,2.5,2.5,0,0,0,2.62,2.8" transform="translate(-2.11 -1.73)"/><path class="cls-3" d="M255.06,417c0-1.55,0-3.17,0-4.66h.88c0,.2,0,.58,0,.79h0a1.58,1.58,0,0,1,1.79-.88l0,.86a1.33,1.33,0,0,0-1.73,1.45V417h-.92" transform="translate(-2.11 -1.73)"/><path class="cls-3" d="M260.55,412.18c1.57,0,2.31,1.06,2.23,2.73h-3.7a1.46,1.46,0,0,0,1.51,1.42,1.55,1.55,0,0,0,1.36-.71l.65.52a2.33,2.33,0,0,1-2,1,2.46,2.46,0,0,1,0-4.92m1.31,2A1.29,1.29,0,0,0,260,413a1.36,1.36,0,0,0-.9,1.21Z" transform="translate(-2.11 -1.73)"/><path class="cls-3" d="M266.27,412.94a1.69,1.69,0,0,0,0,3.37,1.69,1.69,0,0,0,0-3.37m-.17-.77a2.06,2.06,0,0,1,1.68.83v-3.47h.92V417h-.9a4.53,4.53,0,0,0,0-.74,1.94,1.94,0,0,1-1.68.87,2.23,2.23,0,0,1-2.35-2.47A2.25,2.25,0,0,1,266.11,412.18Z" transform="translate(-2.11 -1.73)"/><path class="cls-3" d="M270.8,410a.61.61,0,0,1,.62.6.61.61,0,1,1-.62-.6m.46,6.94h-.92v-4.66h.92V417Z" transform="translate(-2.11 -1.73)"/><path class="cls-3" d="M274.36,417c-.9,0-1.37-.52-1.36-1.46v-2.53h-.9v-.76h.9V411h.91v1.34h1.24v.76h-1.24v2.43c0,.53.16.78.66.79a1.33,1.33,0,0,0,.54-.12l0,.76a2.35,2.35,0,0,1-.79.13" transform="translate(-2.11 -1.73)"/><path class="cls-3" d="M248.67,428.09a2.28,2.28,0,0,1,2.49-2.46,2.21,2.21,0,0,1,1.75.77l-.67.54a1.28,1.28,0,0,0-1.07-.53,1.69,1.69,0,0,0,0,3.36,1.33,1.33,0,0,0,1.12-.51l.62.56a2.15,2.15,0,0,1-1.74.73,2.31,2.31,0,0,1-2.51-2.46" transform="translate(-2.11 -1.73)"/><path class="cls-3" d="M256,426.42c-.79,0-1.26.69-1.26,1.53v2.47h-.92V423h.92c0,1.15,0,2.36,0,3.48a1.64,1.64,0,0,1,1.48-.84,1.67,1.67,0,0,1,1.74,1.9v2.89h-.92v-2.58c0-.82-.24-1.43-1.05-1.43" transform="translate(-2.11 -1.73)"/><path class="cls-3" d="M261.68,425.63c1.57,0,2.31,1.06,2.23,2.73h-3.7a1.46,1.46,0,0,0,1.51,1.42,1.55,1.55,0,0,0,1.36-.71l.65.52a2.33,2.33,0,0,1-2,1,2.46,2.46,0,0,1,0-4.92m1.31,2a1.29,1.29,0,0,0-1.87-1.21,1.36,1.36,0,0,0-.9,1.21Z" transform="translate(-2.11 -1.73)"/><path class="cls-3" d="M264.91,428.09a2.28,2.28,0,0,1,2.49-2.46,2.21,2.21,0,0,1,1.75.77l-.67.54a1.28,1.28,0,0,0-1.07-.53,1.69,1.69,0,0,0,0,3.36,1.33,1.33,0,0,0,1.12-.51l.62.56a2.15,2.15,0,0,1-1.74.73,2.31,2.31,0,0,1-2.51-2.46" transform="translate(-2.11 -1.73)"/><polyline class="cls-3" points="268.9 426.05 268.93 426.05 270.89 424.02 272.13 424.02 269.94 426.14 272.32 428.69 271.04 428.69 268.93 426.27 268.9 426.27 268.9 427.48 268.9 428.69 267.98 428.69 267.98 424.97 267.98 421.25 268.9 421.25 268.9 423.65 268.9 426.05"/><line class="cls-2" x1="295.78" y1="418.78" x2="346.79" y2="418.78"/><polygon class="cls-3" points="295.78 419.12 294.84 419.12 295.24 418.78 294.84 418.44 295.78 418.44 295.78 419.12"/><polygon class="cls-3" points="346.79 418.78 341.95 420.34 341.95 417.23 346.79 418.78"/><path class="cls-3" d="M344.41,421.63l3.41-1.12-3.41-1.08Zm4.83-1.35-.34.24.34.27-5.51,1.76v-4.06Z" transform="translate(-2.11 -1.73)"/><rect class="cls-6" x="313.83" y="412.06" width="14.87" height="13.45"/><path class="cls-3" d="M320.12,422.93a2.8,2.8,0,1,0-2.63-2.79,2.52,2.52,0,0,0,2.63,2.79m3.42-4.28a4.07,4.07,0,0,1,0,3,3.76,3.76,0,0,1-6.83,0,4.18,4.18,0,0,1,0-3,3.77,3.77,0,0,1,6.83,0Z" transform="translate(-2.11 -1.73)"/><path class="cls-3" d="M326.12,416.66c0,1,0,2.09,0,3.07l3.11-3.07h1.35l-3.38,3.19,3.59,3.78h-1.4c-1.1-1.2-2.17-2.42-3.29-3.6v3.6h-1v-7h1" transform="translate(-2.11 -1.73)"/><polygon class="cls-1" points="397.49 380.01 448.19 418.78 397.49 457.58 346.79 418.78 397.49 380.01"/><polygon class="cls-5" points="397.49 380.01 448.19 418.78 397.49 457.58 346.79 418.78 397.49 380.01"/><path class="cls-3" d="M389.54,402.83a2.16,2.16,0,0,0,1.87-.92l.78.53a3.12,3.12,0,0,1-2.66,1.26,3.48,3.48,0,0,1-3.39-2.18,4.18,4.18,0,0,1,0-3,3.62,3.62,0,0,1,4.15-2.1,2.71,2.71,0,0,1,1.78,1l-.77.59a2.1,2.1,0,0,0-1.73-.82,2.55,2.55,0,0,0-2.65,2.79,2.5,2.5,0,0,0,2.62,2.8" transform="translate(-2.11 -1.73)"/><path class="cls-3" d="M395.34,399.51c-.79,0-1.26.69-1.26,1.53v2.47h-.92v-7.44h.92c0,1.15,0,2.36,0,3.48a1.64,1.64,0,0,1,1.48-.84,1.67,1.67,0,0,1,1.74,1.9v2.89h-.92v-2.58c0-.82-.24-1.43-1.05-1.43" transform="translate(-2.11 -1.73)"/><path class="cls-3" d="M401,398.73c1.57,0,2.31,1.06,2.23,2.73h-3.7a1.46,1.46,0,0,0,1.51,1.42,1.55,1.55,0,0,0,1.36-.71l.65.52a2.33,2.33,0,0,1-2,1,2.46,2.46,0,0,1,0-4.92m1.31,2a1.29,1.29,0,0,0-1.87-1.21,1.36,1.36,0,0,0-.9,1.21Z" transform="translate(-2.11 -1.73)"/><path class="cls-3" d="M404.21,401.18a2.28,2.28,0,0,1,2.49-2.46,2.21,2.21,0,0,1,1.75.77l-.67.54a1.28,1.28,0,0,0-1.07-.53,1.69,1.69,0,0,0,0,3.36,1.33,1.33,0,0,0,1.12-.51l.62.56a2.15,2.15,0,0,1-1.74.73,2.31,2.31,0,0,1-2.51-2.46" transform="translate(-2.11 -1.73)"/><polyline class="cls-3" points="408.2 399.14 408.23 399.14 410.19 397.12 411.43 397.12 409.24 399.23 411.62 401.78 410.34 401.78 408.23 399.36 408.2 399.36 408.2 400.57 408.2 401.78 407.28 401.78 407.28 398.06 407.28 394.35 408.2 394.35 408.2 396.75 408.2 399.14"/><path class="cls-3" d="M381.84,416.36a1.32,1.32,0,0,0,1.35-1.61c-1,0-2.3,0-2.3.89,0,.53.42.72,1,.73m-1.9-.71c0-1.5,1.7-1.53,3.25-1.57.06-.79-.42-1.15-1.15-1.15a1.94,1.94,0,0,0-1.33.54l-.49-.59a2.75,2.75,0,0,1,1.91-.7,1.73,1.73,0,0,1,1.95,1.83,29.05,29.05,0,0,0,.07,3h-.84a3.1,3.1,0,0,1-.08-.67h0a1.79,1.79,0,0,1-1.56.79C380.67,417.09,379.94,416.64,379.94,415.65Z" transform="translate(-2.11 -1.73)"/><path class="cls-3" d="M385.31,414.64a2.28,2.28,0,0,1,2.49-2.46,2.21,2.21,0,0,1,1.75.77l-.67.54a1.28,1.28,0,0,0-1.07-.53,1.69,1.69,0,0,0,0,3.36,1.33,1.33,0,0,0,1.12-.51l.62.56a2.15,2.15,0,0,1-1.74.73,2.31,2.31,0,0,1-2.51-2.46" transform="translate(-2.11 -1.73)"/><path class="cls-3" d="M390.17,414.64a2.28,2.28,0,0,1,2.49-2.46,2.21,2.21,0,0,1,1.75.77l-.67.54a1.28,1.28,0,0,0-1.07-.53,1.69,1.69,0,0,0,0,3.36,1.33,1.33,0,0,0,1.12-.51l.62.56a2.15,2.15,0,0,1-1.74.73,2.31,2.31,0,0,1-2.51-2.46" transform="translate(-2.11 -1.73)"/><path class="cls-3" d="M397.54,416.32a1.69,1.69,0,1,0-1.55-1.69,1.5,1.5,0,0,0,1.55,1.69m0-4.14a2.46,2.46,0,1,1-2.51,2.45A2.31,2.31,0,0,1,397.54,412.18Z" transform="translate(-2.11 -1.73)"/><path class="cls-3" d="M405.46,412.31c0,1.55,0,3.17,0,4.66h-.88c0-.2,0-.59-.06-.77a1.71,1.71,0,0,1-1.52.9,1.66,1.66,0,0,1-1.74-1.9v-2.89h.92v2.58c0,.83.24,1.44,1.06,1.44s1.25-.69,1.25-1.53v-2.48h.92" transform="translate(-2.11 -1.73)"/><path class="cls-3" d="M407.06,417c0-1.55,0-3.17,0-4.66h.88c0,.2,0,.55,0,.77h0a1.63,1.63,0,0,1,1.51-.9c1.16,0,1.74.74,1.74,1.9V417h-.92v-2.59c0-.83-.24-1.43-1.06-1.43s-1.25.69-1.25,1.53V417h-.92" transform="translate(-2.11 -1.73)"/><path class="cls-3" d="M414.27,417c-.9,0-1.37-.52-1.36-1.46v-2.53H412v-.76h.9V411h.91v1.34h1.24v.76h-1.24v2.43c0,.53.16.78.66.79a1.33,1.33,0,0,0,.54-.12l0,.76a2.35,2.35,0,0,1-.79.13" transform="translate(-2.11 -1.73)"/><path class="cls-3" d="M415.85,414.15c-.61-1.52,1.15-2.41,2.6-1.78a1.58,1.58,0,0,1,.73.57l-.64.54a1.24,1.24,0,0,0-1.08-.58c-.46,0-.87.15-.87.61,0,.72,1.11.62,1.68.89a1.32,1.32,0,0,1,.94,1.19c.07,1.9-3,1.84-3.74.67l.66-.56a1.51,1.51,0,0,0,1.24.65c.51,0,.92-.17.92-.68,0-.89-1.54-.62-2.13-1.15a1,1,0,0,1-.31-.36" transform="translate(-2.11 -1.73)"/><path class="cls-3" d="M376.94,430.42c0-1.55,0-3.17,0-4.66h.88c0,.2,0,.58,0,.79h0a1.58,1.58,0,0,1,1.79-.88l0,.86a1.33,1.33,0,0,0-1.73,1.45v2.45h-.92" transform="translate(-2.11 -1.73)"/><path class="cls-3" d="M382.43,425.63c1.57,0,2.31,1.06,2.23,2.73H381a1.46,1.46,0,0,0,1.51,1.42,1.55,1.55,0,0,0,1.36-.71l.65.52a2.33,2.33,0,0,1-2,1,2.46,2.46,0,0,1,0-4.92m1.31,2a1.29,1.29,0,0,0-1.87-1.21,1.36,1.36,0,0,0-.9,1.21Z" transform="translate(-2.11 -1.73)"/><path class="cls-3" d="M385.66,428.09a2.28,2.28,0,0,1,2.49-2.46,2.21,2.21,0,0,1,1.75.77l-.67.54a1.28,1.28,0,0,0-1.07-.53,1.69,1.69,0,0,0,0,3.36,1.33,1.33,0,0,0,1.12-.51l.62.56a2.15,2.15,0,0,1-1.74.73,2.31,2.31,0,0,1-2.51-2.46" transform="translate(-2.11 -1.73)"/><path class="cls-3" d="M392.92,425.63c1.57,0,2.31,1.06,2.23,2.73h-3.7a1.46,1.46,0,0,0,1.51,1.42,1.55,1.55,0,0,0,1.36-.71l.65.52a2.33,2.33,0,0,1-2,1,2.46,2.46,0,0,1,0-4.92m1.31,2a1.29,1.29,0,0,0-1.87-1.21,1.36,1.36,0,0,0-.9,1.21Z" transform="translate(-2.11 -1.73)"/><path class="cls-3" d="M396.93,423.48a.61.61,0,0,1,.62.6.61.61,0,1,1-.62-.6m.46,6.94h-.92v-4.66h.92v4.66Z" transform="translate(-2.11 -1.73)"/><path class="cls-3" d="M401.2,430.42h-1l-1.9-4.66h1c.46,1.22.9,2.48,1.39,3.67l1.38-3.67h1" transform="translate(-2.11 -1.73)"/><path class="cls-3" d="M405.51,429.81a1.32,1.32,0,0,0,1.35-1.61c-1,0-2.3,0-2.3.89,0,.53.42.72,1,.73m-1.9-.71c0-1.5,1.7-1.53,3.25-1.57.06-.79-.42-1.15-1.15-1.15a1.94,1.94,0,0,0-1.33.54l-.49-.59a2.75,2.75,0,0,1,1.91-.7,1.73,1.73,0,0,1,1.95,1.83,29.05,29.05,0,0,0,.07,3H407a3.1,3.1,0,0,1-.08-.67h0a1.79,1.79,0,0,1-1.56.79C404.34,430.54,403.62,430.1,403.62,429.1Z" transform="translate(-2.11 -1.73)"/><path class="cls-3" d="M411.75,429.77a1.69,1.69,0,0,0,0-3.37,1.69,1.69,0,0,0,0,3.37m.16.78a2,2,0,0,1-1.68-.87h0v.74h-.9V423h.92v3.47h0a2,2,0,0,1,1.66-.83,2.46,2.46,0,0,1,0,4.92Z" transform="translate(-2.11 -1.73)"/><polyline class="cls-3" points="414.38 428.69 413.45 428.69 413.45 424.97 413.45 421.25 414.38 421.25 414.38 424.97 414.38 428.69"/><path class="cls-3" d="M420.21,425.63c1.57,0,2.31,1.06,2.23,2.73h-3.7a1.46,1.46,0,0,0,1.51,1.42,1.55,1.55,0,0,0,1.36-.71l.65.52a2.33,2.33,0,0,1-2,1,2.46,2.46,0,0,1,0-4.92m1.31,2a1.29,1.29,0,0,0-1.87-1.21,1.36,1.36,0,0,0-.9,1.21Z" transform="translate(-2.11 -1.73)"/><path class="cls-3" d="M384.94,443.22a1.69,1.69,0,0,0,0-3.37,1.69,1.69,0,0,0,0,3.37m.16.78a2,2,0,0,1-1.68-.87h0v.74h-.9v-7.44h.92v3.47h0a2,2,0,0,1,1.66-.83,2.46,2.46,0,0,1,0,4.92Z" transform="translate(-2.11 -1.73)"/><path class="cls-3" d="M390.29,443.26a1.32,1.32,0,0,0,1.35-1.61c-1,0-2.3,0-2.3.89,0,.53.42.72,1,.73m-1.9-.71c0-1.5,1.7-1.53,3.25-1.57.06-.79-.42-1.15-1.15-1.15a1.94,1.94,0,0,0-1.33.54l-.49-.59a2.75,2.75,0,0,1,1.91-.7,1.73,1.73,0,0,1,1.95,1.83,29.05,29.05,0,0,0,.07,3h-.84a3.1,3.1,0,0,1-.08-.67h0a1.79,1.79,0,0,1-1.56.79C389.12,444,388.4,443.55,388.4,442.55Z" transform="translate(-2.11 -1.73)"/><polyline class="cls-3" points="392.9 442.14 391.98 442.14 391.98 438.42 391.98 434.7 392.9 434.7 392.9 438.42 392.9 442.14"/><path class="cls-3" d="M398.18,443.26a1.32,1.32,0,0,0,1.35-1.61c-1,0-2.3,0-2.3.89,0,.53.42.72,1,.73m-1.9-.71c0-1.5,1.7-1.53,3.25-1.57.06-.79-.42-1.15-1.15-1.15a1.94,1.94,0,0,0-1.33.54l-.49-.59a2.75,2.75,0,0,1,1.91-.7,1.73,1.73,0,0,1,1.95,1.83,29.05,29.05,0,0,0,.07,3h-.84a3.1,3.1,0,0,1-.08-.67h0A1.79,1.79,0,0,1,398,444C397,444,396.28,443.55,396.28,442.55Z" transform="translate(-2.11 -1.73)"/><path class="cls-3" d="M402,443.87c0-1.55,0-3.17,0-4.66h.88c0,.2,0,.55,0,.77h0a1.63,1.63,0,0,1,1.51-.9c1.16,0,1.74.74,1.74,1.9v2.89h-.92v-2.59c0-.83-.24-1.43-1.06-1.43s-1.25.69-1.25,1.53v2.48H402" transform="translate(-2.11 -1.73)"/><path class="cls-3" d="M407.38,441.54a2.28,2.28,0,0,1,2.49-2.46,2.21,2.21,0,0,1,1.75.77l-.67.54a1.28,1.28,0,0,0-1.07-.53,1.69,1.69,0,0,0,0,3.36,1.33,1.33,0,0,0,1.12-.51l.62.56a2.15,2.15,0,0,1-1.74.73,2.31,2.31,0,0,1-2.51-2.46" transform="translate(-2.11 -1.73)"/><path class="cls-3" d="M414.65,439.08c1.57,0,2.31,1.06,2.23,2.73h-3.7a1.46,1.46,0,0,0,1.51,1.42,1.55,1.55,0,0,0,1.36-.71l.65.52a2.33,2.33,0,0,1-2,1,2.46,2.46,0,0,1,0-4.92m1.31,2a1.29,1.29,0,0,0-1.87-1.21,1.36,1.36,0,0,0-.9,1.21Z" transform="translate(-2.11 -1.73)"/><path class="cls-2" d="M399.6,458.34v11.83a1.67,1.67,0,0,1-1.69,1.69H263.05a1.69,1.69,0,0,1-1.69-1.69v-19.3" transform="translate(-2.11 -1.73)"/><line class="cls-2" x1="397.49" y1="456.6" x2="397.49" y2="455.59"/><polygon class="cls-3" points="260.8 453.93 257.69 453.93 259.25 449.13 260.8 453.93"/><path class="cls-3" d="M260.28,455.33h2.2L261.36,452Zm3.11.68h-4.06l1.76-5.37.27.24.27-.24Z" transform="translate(-2.11 -1.73)"/><rect class="cls-6" x="294.63" y="463.4" width="59.96" height="13.45"/><polyline class="cls-3" points="295.48 466.27 296.45 466.27 296.45 467.73 296.45 469.18 299.98 469.18 299.98 467.73 299.98 466.27 300.96 466.27 300.96 469.75 300.96 473.23 299.98 473.23 299.98 471.64 299.98 470.05 296.45 470.05 296.45 471.64 296.45 473.23 295.48 473.23 295.48 469.75 295.48 466.27"/><path class="cls-3" d="M305.19,468a.61.61,0,0,1,.62.6.61.61,0,1,1-.62-.6m.46,6.94h-.92v-4.66h.92V475Z" transform="translate(-2.11 -1.73)"/><path class="cls-3" d="M309.46,470.95a1.65,1.65,0,0,0,0,3.29,1.64,1.64,0,0,0,0-3.29m2.44,3.79a2.33,2.33,0,0,1-2.58,2.6,3.41,3.41,0,0,1-2.28-.85l.59-.72a2.38,2.38,0,0,0,1.7.76c1.34,0,1.78-.93,1.62-2.32a1.9,1.9,0,0,1-1.64.81,2.42,2.42,0,0,1,0-4.83,2,2,0,0,1,1.7.88v-.75h.9v4.43Z" transform="translate(-2.11 -1.73)"/><path class="cls-3" d="M315.68,471c-.79,0-1.26.69-1.26,1.53V475h-.92v-7.44h.92c0,1.15,0,2.36,0,3.48a1.64,1.64,0,0,1,1.48-.84,1.67,1.67,0,0,1,1.74,1.9V475h-.92v-2.58c0-.82-.24-1.43-1.05-1.43" transform="translate(-2.11 -1.73)"/><path class="cls-3" d="M324.17,474.32a1.69,1.69,0,0,0,0-3.37,1.69,1.69,0,0,0,0,3.37m.16.78a2,2,0,0,1-1.68-.87h0V475h-.9v-7.44h.92V471h0a2,2,0,0,1,1.66-.83,2.46,2.46,0,0,1,0,4.92Z" transform="translate(-2.11 -1.73)"/><path class="cls-3" d="M329.52,474.36a1.32,1.32,0,0,0,1.35-1.61c-1,0-2.3,0-2.3.89,0,.53.42.72,1,.73m-1.9-.71c0-1.5,1.7-1.53,3.25-1.57.06-.79-.42-1.15-1.15-1.15a1.94,1.94,0,0,0-1.33.54l-.49-.59a2.75,2.75,0,0,1,1.91-.7,1.73,1.73,0,0,1,1.95,1.83,29.05,29.05,0,0,0,.07,3H331a3.1,3.1,0,0,1-.08-.67h0a1.79,1.79,0,0,1-1.56.79C328.35,475.09,327.62,474.64,327.62,473.65Z" transform="translate(-2.11 -1.73)"/><polyline class="cls-3" points="332.13 473.23 331.2 473.23 331.2 469.52 331.2 465.8 332.13 465.8 332.13 469.52 332.13 473.23"/><path class="cls-3" d="M337.41,474.36a1.32,1.32,0,0,0,1.35-1.61c-1,0-2.3,0-2.3.89,0,.53.42.72,1,.73m-1.9-.71c0-1.5,1.7-1.53,3.25-1.57.06-.79-.42-1.15-1.15-1.15a1.94,1.94,0,0,0-1.33.54l-.49-.59a2.75,2.75,0,0,1,1.91-.7,1.73,1.73,0,0,1,1.95,1.83,29.05,29.05,0,0,0,.07,3h-.84a3.1,3.1,0,0,1-.08-.67h0a1.79,1.79,0,0,1-1.56.79C336.24,475.09,335.51,474.64,335.51,473.65Z" transform="translate(-2.11 -1.73)"/><path class="cls-3" d="M341.19,475c0-1.55,0-3.17,0-4.66H342c0,.2,0,.55,0,.77h0a1.63,1.63,0,0,1,1.51-.9c1.16,0,1.74.74,1.74,1.9V475h-.92v-2.59c0-.83-.24-1.43-1.06-1.43s-1.25.69-1.25,1.53V475h-.92" transform="translate(-2.11 -1.73)"/><path class="cls-3" d="M346.61,472.64a2.28,2.28,0,0,1,2.49-2.46,2.21,2.21,0,0,1,1.75.77l-.67.54a1.28,1.28,0,0,0-1.07-.53,1.69,1.69,0,0,0,0,3.36,1.33,1.33,0,0,0,1.12-.51l.62.56a2.15,2.15,0,0,1-1.74.73,2.31,2.31,0,0,1-2.51-2.46" transform="translate(-2.11 -1.73)"/><path class="cls-3" d="M353.88,470.18c1.57,0,2.31,1.06,2.23,2.73h-3.7a1.46,1.46,0,0,0,1.51,1.42,1.55,1.55,0,0,0,1.36-.71l.65.52a2.33,2.33,0,0,1-2,1,2.46,2.46,0,0,1,0-4.92m1.31,2a1.29,1.29,0,0,0-1.87-1.21,1.36,1.36,0,0,0-.9,1.21Z" transform="translate(-2.11 -1.73)"/><path class="cls-4" d="M50.11,288.12h68.28v46.64C107,327,99.9,327,95.64,327c-6.83,0-16,7.77-22.78,7.77-4.26,0-11.36,0-22.75-7.77Z" transform="translate(-2.11 -1.73)"/><path class="cls-5" d="M50.11,288.12h68.28v46.64C107,327,99.9,327,95.64,327c-6.83,0-16,7.77-22.78,7.77-4.26,0-11.36,0-22.75-7.77Z" transform="translate(-2.11 -1.73)"/><path class="cls-3" d="M57.48,310a2.16,2.16,0,0,0,1.87-.92l.78.53a3.12,3.12,0,0,1-2.66,1.26,3.48,3.48,0,0,1-3.39-2.18,4.18,4.18,0,0,1,0-3,3.62,3.62,0,0,1,4.15-2.1,2.71,2.71,0,0,1,1.78,1l-.77.59a2.1,2.1,0,0,0-1.73-.82,2.55,2.55,0,0,0-2.65,2.79,2.5,2.5,0,0,0,2.62,2.8" transform="translate(-2.11 -1.73)"/><path class="cls-3" d="M61.07,310.67c0-1.55,0-3.17,0-4.66h.88c0,.2,0,.58,0,.79h0a1.58,1.58,0,0,1,1.79-.88l0,.86A1.33,1.33,0,0,0,62,308.22v2.45h-.92" transform="translate(-2.11 -1.73)"/><path class="cls-3" d="M66.56,305.88c1.57,0,2.31,1.06,2.23,2.73H65.1A1.46,1.46,0,0,0,66.61,310a1.55,1.55,0,0,0,1.36-.71l.65.52a2.33,2.33,0,0,1-2,1,2.46,2.46,0,0,1,0-4.92m1.31,2A1.29,1.29,0,0,0,66,306.71a1.36,1.36,0,0,0-.9,1.21Z" transform="translate(-2.11 -1.73)"/><path class="cls-3" d="M72.29,306.64a1.69,1.69,0,0,0,0,3.37,1.69,1.69,0,0,0,0-3.37m-.17-.77a2.06,2.06,0,0,1,1.68.83v-3.47h.92v7.44h-.9a4.53,4.53,0,0,0,0-.74,1.94,1.94,0,0,1-1.68.87,2.23,2.23,0,0,1-2.35-2.47A2.25,2.25,0,0,1,72.12,305.88Z" transform="translate(-2.11 -1.73)"/><path class="cls-3" d="M76.81,303.72a.61.61,0,0,1,.62.6.61.61,0,1,1-.62-.6m.46,6.94h-.92V306h.92v4.66Z" transform="translate(-2.11 -1.73)"/><path class="cls-3" d="M80.37,310.75c-.9,0-1.37-.52-1.36-1.46v-2.53h-.9V306H79v-1.34h.91V306h1.24v.76H79.93v2.43c0,.53.16.78.66.79a1.33,1.33,0,0,0,.54-.12l0,.76a2.35,2.35,0,0,1-.79.13" transform="translate(-2.11 -1.73)"/><path class="cls-3" d="M84.33,308.34a2.28,2.28,0,0,1,2.49-2.46,2.21,2.21,0,0,1,1.75.77l-.67.54a1.28,1.28,0,0,0-1.07-.53,1.69,1.69,0,0,0,0,3.36,1.33,1.33,0,0,0,1.12-.51l.62.56a2.15,2.15,0,0,1-1.74.73,2.31,2.31,0,0,1-2.51-2.46" transform="translate(-2.11 -1.73)"/><path class="cls-3" d="M89.5,310.67c0-1.55,0-3.17,0-4.66h.88c0,.2,0,.58,0,.79h0a1.58,1.58,0,0,1,1.79-.88l0,.86a1.33,1.33,0,0,0-1.73,1.45v2.45H89.5" transform="translate(-2.11 -1.73)"/><path class="cls-3" d="M93.53,303.72a.61.61,0,0,1,.62.6.61.61,0,1,1-.62-.6m.46,6.94h-.92V306H94v4.66Z" transform="translate(-2.11 -1.73)"/><path class="cls-3" d="M97.09,310.75c-.9,0-1.37-.52-1.36-1.46v-2.53h-.9V306h.9v-1.34h.91V306h1.24v.76H96.65v2.43c0,.53.16.78.66.79a1.33,1.33,0,0,0,.54-.12l0,.76a2.35,2.35,0,0,1-.79.13" transform="translate(-2.11 -1.73)"/><path class="cls-3" d="M100.95,305.88c1.57,0,2.31,1.06,2.23,2.73h-3.7A1.46,1.46,0,0,0,101,310a1.55,1.55,0,0,0,1.36-.71l.65.52a2.33,2.33,0,0,1-2,1,2.46,2.46,0,0,1,0-4.92m1.31,2a1.29,1.29,0,0,0-1.87-1.21,1.36,1.36,0,0,0-.9,1.21Z" transform="translate(-2.11 -1.73)"/><path class="cls-3" d="M104.48,310.67c0-1.55,0-3.17,0-4.66h.88c0,.2,0,.58,0,.79h0a1.58,1.58,0,0,1,1.79-.88l0,.86a1.33,1.33,0,0,0-1.73,1.45v2.45h-.92" transform="translate(-2.11 -1.73)"/><path class="cls-3" d="M108.51,303.72a.61.61,0,0,1,.62.6.61.61,0,1,1-.62-.6m.46,6.94H108V306H109v4.66Z" transform="translate(-2.11 -1.73)"/><path class="cls-3" d="M112.14,310.06a1.32,1.32,0,0,0,1.35-1.61c-1,0-2.3,0-2.3.89,0,.53.42.72,1,.73m-1.9-.71c0-1.5,1.7-1.53,3.25-1.57.06-.79-.42-1.15-1.15-1.15a1.94,1.94,0,0,0-1.33.54l-.49-.59a2.75,2.75,0,0,1,1.91-.7,1.73,1.73,0,0,1,1.95,1.83,29,29,0,0,0,.07,3h-.84a3.1,3.1,0,0,1-.08-.67h0a1.79,1.79,0,0,1-1.56.79C111,310.78,110.24,310.34,110.24,309.35Z" transform="translate(-2.11 -1.73)"/><path class="cls-2" d="M84.25,330.81v88a1.69,1.69,0,0,0,1.69,1.69H225.36" transform="translate(-2.11 -1.73)"/><line class="cls-2" x1="82.13" y1="329.08" x2="82.13" y2="328.06"/><polygon class="cls-3" points="223.25 418.78 218.42 420.34 218.42 417.23 223.25 418.78"/><path class="cls-3" d="M220.87,421.63l3.41-1.12-3.41-1.08Zm4.8-1.35-.3.24.3.27-5.48,1.76v-4.06Z" transform="translate(-2.11 -1.73)"/><rect class="cls-4" x="481.99" y="398.5" width="69.43" height="40.56"/><rect class="cls-5" x="481.99" y="398.5" width="69.43" height="40.56"/><path class="cls-3" d="M502.06,416.21a2.16,2.16,0,0,0,1.87-.92l.78.53a3.12,3.12,0,0,1-2.66,1.26,3.48,3.48,0,0,1-3.39-2.18,4.18,4.18,0,0,1,0-3,3.62,3.62,0,0,1,4.15-2.1,2.71,2.71,0,0,1,1.78,1l-.77.59a2.1,2.1,0,0,0-1.73-.82,2.55,2.55,0,0,0-2.65,2.79,2.5,2.5,0,0,0,2.62,2.8" transform="translate(-2.11 -1.73)"/><path class="cls-3" d="M507,416.29a1.32,1.32,0,0,0,1.35-1.61c-1,0-2.3,0-2.3.89,0,.53.42.72,1,.73m-1.9-.71c0-1.5,1.7-1.53,3.25-1.57.06-.79-.42-1.15-1.15-1.15a1.94,1.94,0,0,0-1.33.54l-.49-.59a2.75,2.75,0,0,1,1.91-.7,1.73,1.73,0,0,1,1.95,1.83,29.06,29.06,0,0,0,.07,3h-.84a3.1,3.1,0,0,1-.08-.67h0a1.79,1.79,0,0,1-1.56.79C505.86,417,505.13,416.58,505.13,415.58Z" transform="translate(-2.11 -1.73)"/><polyline class="cls-3" points="509.64 415.17 508.71 415.17 508.71 411.45 508.71 407.73 509.64 407.73 509.64 411.45 509.64 415.17"/><path class="cls-3" d="M513.06,414.57a2.28,2.28,0,0,1,2.49-2.46,2.21,2.21,0,0,1,1.75.77l-.67.54a1.28,1.28,0,0,0-1.07-.53,1.69,1.69,0,0,0,0,3.36,1.33,1.33,0,0,0,1.12-.51l.62.56a2.15,2.15,0,0,1-1.74.73,2.31,2.31,0,0,1-2.51-2.46" transform="translate(-2.11 -1.73)"/><path class="cls-3" d="M522.34,412.24c0,1.55,0,3.17,0,4.66h-.88c0-.2,0-.59-.06-.77a1.71,1.71,0,0,1-1.52.9,1.66,1.66,0,0,1-1.74-1.9v-2.89h.92v2.58c0,.83.24,1.44,1.06,1.44s1.25-.69,1.25-1.53v-2.48h.92" transform="translate(-2.11 -1.73)"/><polyline class="cls-3" points="522.78 415.17 521.85 415.17 521.85 411.45 521.85 407.73 522.78 407.73 522.78 411.45 522.78 415.17"/><path class="cls-3" d="M528.06,416.29a1.32,1.32,0,0,0,1.35-1.61c-1,0-2.3,0-2.3.89,0,.53.42.72,1,.73m-1.9-.71c0-1.5,1.7-1.53,3.25-1.57.06-.79-.42-1.15-1.15-1.15a1.94,1.94,0,0,0-1.33.54l-.49-.59a2.75,2.75,0,0,1,1.91-.7,1.73,1.73,0,0,1,1.95,1.83,29.06,29.06,0,0,0,.07,3h-.84a3.1,3.1,0,0,1-.08-.67h0a1.79,1.79,0,0,1-1.56.79C526.89,417,526.16,416.58,526.16,415.58Z" transform="translate(-2.11 -1.73)"/><path class="cls-3" d="M533.22,417c-.9,0-1.37-.52-1.36-1.46V413H531v-.76h.9V410.9h.91v1.34H534V413h-1.24v2.43c0,.53.16.78.66.79a1.33,1.33,0,0,0,.54-.12l0,.76a2.35,2.35,0,0,1-.79.13" transform="translate(-2.11 -1.73)"/><path class="cls-3" d="M537.08,412.11c1.57,0,2.31,1.06,2.23,2.73h-3.7a1.46,1.46,0,0,0,1.51,1.42,1.55,1.55,0,0,0,1.36-.71l.65.52a2.33,2.33,0,0,1-2,1,2.46,2.46,0,0,1,0-4.92m1.31,2a1.29,1.29,0,0,0-1.87-1.21,1.36,1.36,0,0,0-.9,1.21Z" transform="translate(-2.11 -1.73)"/><path class="cls-3" d="M492.4,428a2.28,2.28,0,0,1,2.49-2.46,2.21,2.21,0,0,1,1.75.77l-.67.54a1.28,1.28,0,0,0-1.07-.53,1.69,1.69,0,0,0,0,3.36,1.33,1.33,0,0,0,1.12-.51l.62.56a2.15,2.15,0,0,1-1.74.73A2.31,2.31,0,0,1,492.4,428" transform="translate(-2.11 -1.73)"/><path class="cls-3" d="M497.57,430.35c0-1.55,0-3.17,0-4.66h.88c0,.2,0,.58,0,.79h0a1.58,1.58,0,0,1,1.79-.88l0,.86a1.33,1.33,0,0,0-1.73,1.45v2.45h-.92" transform="translate(-2.11 -1.73)"/><path class="cls-3" d="M503.05,425.56c1.57,0,2.31,1.06,2.23,2.73h-3.7a1.46,1.46,0,0,0,1.51,1.42,1.55,1.55,0,0,0,1.36-.71l.65.52a2.33,2.33,0,0,1-2,1,2.46,2.46,0,0,1,0-4.92m1.31,2a1.29,1.29,0,0,0-1.87-1.21,1.36,1.36,0,0,0-.9,1.21Z" transform="translate(-2.11 -1.73)"/><path class="cls-3" d="M508.78,426.33a1.69,1.69,0,0,0,0,3.37,1.69,1.69,0,0,0,0-3.37m-.17-.77a2.06,2.06,0,0,1,1.68.83v-3.47h.92v7.44h-.9a4.53,4.53,0,0,0,0-.74,1.94,1.94,0,0,1-1.68.87,2.23,2.23,0,0,1-2.35-2.47A2.25,2.25,0,0,1,508.61,425.56Z" transform="translate(-2.11 -1.73)"/><path class="cls-3" d="M513.3,423.41a.61.61,0,0,1,.62.6.61.61,0,1,1-.62-.6m.46,6.94h-.92v-4.66h.92v4.66Z" transform="translate(-2.11 -1.73)"/><path class="cls-3" d="M516.86,430.43c-.9,0-1.37-.52-1.36-1.46v-2.53h-.9v-.76h.9v-1.34h.91v1.34h1.24v.76h-1.24v2.43c0,.53.16.78.66.79a1.33,1.33,0,0,0,.54-.12l0,.76a2.35,2.35,0,0,1-.79.13" transform="translate(-2.11 -1.73)"/><path class="cls-3" d="M522.62,430.43c-.9,0-1.37-.52-1.36-1.46v-2.53h-.9v-.76h.9v-1.34h.91v1.34h1.24v.76h-1.24v2.43c0,.53.16.78.66.79a1.33,1.33,0,0,0,.54-.12l0,.76a2.35,2.35,0,0,1-.79.13" transform="translate(-2.11 -1.73)"/><path class="cls-3" d="M526.47,425.56c1.57,0,2.31,1.06,2.23,2.73H525a1.46,1.46,0,0,0,1.51,1.42,1.55,1.55,0,0,0,1.36-.71l.65.52a2.33,2.33,0,0,1-2,1,2.46,2.46,0,0,1,0-4.92m1.31,2a1.29,1.29,0,0,0-1.87-1.21,1.36,1.36,0,0,0-.9,1.21Z" transform="translate(-2.11 -1.73)"/><path class="cls-3" d="M530,430.35c0-1.55,0-3.17,0-4.66h.88c0,.2,0,.58,0,.79h0a1.58,1.58,0,0,1,1.79-.88l0,.86a1.33,1.33,0,0,0-1.73,1.45v2.45H530" transform="translate(-2.11 -1.73)"/><path class="cls-3" d="M534.47,426.46a1.63,1.63,0,0,1,1.49-.9,1.46,1.46,0,0,1,1.45.93,1.71,1.71,0,0,1,1.58-.93c1.16,0,1.74.74,1.74,1.9v2.89h-.92v-2.59c0-.8-.24-1.43-1-1.43-1.68,0-1.06,2.4-1.18,4h-.92v-2.77c0-.74-.26-1.24-1-1.24s-1.19.71-1.19,1.53v2.48h-.92c0-1.55,0-3.17,0-4.66h.88c0,.2,0,.55,0,.77h0" transform="translate(-2.11 -1.73)"/><path class="cls-3" d="M542.12,427.54c-.61-1.52,1.15-2.41,2.6-1.78a1.58,1.58,0,0,1,.73.57l-.64.54a1.24,1.24,0,0,0-1.08-.58c-.46,0-.87.15-.87.61,0,.72,1.11.62,1.68.89a1.32,1.32,0,0,1,.94,1.19c.07,1.9-3,1.84-3.74.67l.66-.56a1.51,1.51,0,0,0,1.24.65c.51,0,.92-.17.92-.68,0-.89-1.54-.62-2.13-1.15a1,1,0,0,1-.31-.36" transform="translate(-2.11 -1.73)"/><line class="cls-2" x1="551.41" y1="418.78" x2="579.64" y2="418.78"/><polygon class="cls-3" points="579.64 418.78 574.84 420.34 574.84 417.23 579.64 418.78"/><path class="cls-3" d="M577.29,421.63l3.38-1.12-3.38-1.08Zm4.46-1.45v.71l-5.14,1.66v-4.06Z" transform="translate(-2.11 -1.73)"/><path class="cls-4" d="M581.75,400.24h67.6V440.8C638.09,434,631.06,434,626.84,434c-6.76,0-15.78,6.76-22.54,6.76-4.23,0-11.26,0-22.54-6.76Z" transform="translate(-2.11 -1.73)"/><path class="cls-5" d="M581.75,400.24h67.6V440.8C638.09,434,631.06,434,626.84,434c-6.76,0-15.78,6.76-22.54,6.76-4.23,0-11.26,0-22.54-6.76Z" transform="translate(-2.11 -1.73)"/><polyline class="cls-3" points="603.37 411.79 602.4 411.79 602.4 408.73 602.4 405.68 600.16 405.68 600.16 405.25 600.16 404.82 605.6 404.82 605.6 405.25 605.6 405.68 603.37 405.68 603.37 408.73 603.37 411.79"/><path class="cls-3" d="M609.75,408.73c1.57,0,2.31,1.06,2.23,2.73h-3.7a1.46,1.46,0,0,0,1.51,1.42,1.55,1.55,0,0,0,1.36-.71l.65.52a2.33,2.33,0,0,1-2,1,2.46,2.46,0,0,1,0-4.92m1.31,2a1.29,1.29,0,0,0-1.87-1.21,1.36,1.36,0,0,0-.9,1.21Z" transform="translate(-2.11 -1.73)"/><path class="cls-3" d="M613.28,413.52c0-1.55,0-3.17,0-4.66h.88c0,.2,0,.58,0,.79h0a1.58,1.58,0,0,1,1.79-.88l0,.86a1.33,1.33,0,0,0-1.73,1.45v2.45h-.92" transform="translate(-2.11 -1.73)"/><path class="cls-3" d="M617.75,409.63a1.63,1.63,0,0,1,1.49-.9,1.46,1.46,0,0,1,1.45.93,1.71,1.71,0,0,1,1.58-.93c1.16,0,1.74.74,1.74,1.9v2.89h-.92v-2.59c0-.8-.24-1.43-1-1.43-1.68,0-1.06,2.4-1.18,4h-.92v-2.77c0-.74-.26-1.24-1-1.24s-1.19.71-1.19,1.53v2.48h-.92c0-1.55,0-3.17,0-4.66h.88c0,.2,0,.55,0,.77h0" transform="translate(-2.11 -1.73)"/><path class="cls-3" d="M625.4,410.71c-.61-1.52,1.15-2.41,2.6-1.78a1.58,1.58,0,0,1,.73.57l-.64.54a1.24,1.24,0,0,0-1.08-.58c-.46,0-.87.15-.87.61,0,.72,1.11.62,1.68.89a1.32,1.32,0,0,1,.94,1.19c.07,1.9-3,1.84-3.74.67l.66-.56a1.51,1.51,0,0,0,1.24.65c.51,0,.92-.17.92-.68,0-.89-1.54-.62-2.13-1.15a1,1,0,0,1-.31-.36" transform="translate(-2.11 -1.73)"/><path class="cls-3" d="M596,426.36a1.32,1.32,0,0,0,1.35-1.61c-1,0-2.3,0-2.3.89,0,.53.42.72,1,.73m-1.9-.71c0-1.5,1.7-1.53,3.25-1.57.06-.79-.42-1.15-1.15-1.15a1.94,1.94,0,0,0-1.33.54l-.49-.59a2.75,2.75,0,0,1,1.91-.7,1.73,1.73,0,0,1,1.95,1.83,29.06,29.06,0,0,0,.07,3h-.84a3.1,3.1,0,0,1-.08-.67h0a1.79,1.79,0,0,1-1.56.79C594.83,427.09,594.1,426.65,594.1,425.65Z" transform="translate(-2.11 -1.73)"/><path class="cls-3" d="M602.21,426.32a1.69,1.69,0,0,0,0-3.37,1.69,1.69,0,0,0,0,3.37m.16.78a1.94,1.94,0,0,1-1.64-.83h0v3.06h-.92v-7h.9V423h0a1.87,1.87,0,0,1,1.68-.86,2.46,2.46,0,0,1,0,4.92Z" transform="translate(-2.11 -1.73)"/><path class="cls-3" d="M608.45,426.32a1.69,1.69,0,0,0,0-3.37,1.69,1.69,0,0,0,0,3.37m.16.78a1.94,1.94,0,0,1-1.64-.83h0v3.06H606v-7h.9V423h0a1.87,1.87,0,0,1,1.68-.86,2.46,2.46,0,0,1,0,4.92Z" transform="translate(-2.11 -1.73)"/><path class="cls-3" d="M612.25,427c0-1.55,0-3.17,0-4.66h.88c0,.2,0,.58,0,.79h0a1.58,1.58,0,0,1,1.79-.88l0,.86a1.33,1.33,0,0,0-1.73,1.45V427h-.92" transform="translate(-2.11 -1.73)"/><path class="cls-3" d="M617.83,426.32a1.69,1.69,0,1,0-1.55-1.69,1.5,1.5,0,0,0,1.55,1.69m0-4.14a2.46,2.46,0,1,1-2.51,2.45A2.31,2.31,0,0,1,617.83,422.18Z" transform="translate(-2.11 -1.73)"/><path class="cls-3" d="M623.82,427h-1l-1.9-4.66h1c.46,1.22.9,2.48,1.39,3.67l1.38-3.67h1" transform="translate(-2.11 -1.73)"/><path class="cls-3" d="M628.69,422.18c1.57,0,2.31,1.06,2.23,2.73h-3.7a1.46,1.46,0,0,0,1.51,1.42,1.55,1.55,0,0,0,1.36-.71l.65.52a2.33,2.33,0,0,1-2,1,2.46,2.46,0,0,1,0-4.92m1.31,2a1.29,1.29,0,0,0-1.87-1.21,1.36,1.36,0,0,0-.9,1.21Z" transform="translate(-2.11 -1.73)"/><path class="cls-3" d="M634.42,422.95a1.69,1.69,0,0,0,0,3.37,1.69,1.69,0,0,0,0-3.37m-.17-.77a2.06,2.06,0,0,1,1.68.83v-3.47h.92V427H636a4.53,4.53,0,0,0,0-.74,1.94,1.94,0,0,1-1.68.87,2.23,2.23,0,0,1-2.35-2.47A2.25,2.25,0,0,1,634.25,422.18Z" transform="translate(-2.11 -1.73)"/><path class="cls-2" d="M518.81,400.24V360.66a0,0,0,0,1,0,0,0,0,0,0,0,0,0V321" transform="translate(-2.11 -1.73)"/><polygon class="cls-3" points="516.77 319.27 518.36 324.07 515.21 324.07 516.77 319.27"/><polygon class="cls-2" points="516.77 319.27 518.36 324.07 515.21 324.07 516.77 319.27"/><path class="cls-4" d="M484.24,283.9h69.29v40.56c-11.53-6.76-18.76-6.76-23.09-6.76-6.93,0-16.16,6.76-23.09,6.76-4.33,0-11.56,0-23.12-6.76Z" transform="translate(-2.11 -1.73)"/><path class="cls-5" d="M484.24,283.9h69.29v40.56c-11.53-6.76-18.76-6.76-23.09-6.76-6.93,0-16.16,6.76-23.09,6.76-4.33,0-11.56,0-23.12-6.76Z" transform="translate(-2.11 -1.73)"/><path class="cls-3" d="M493.32,296.46a2.16,2.16,0,0,0,1.87-.92l.78.53a3.12,3.12,0,0,1-2.66,1.26,3.48,3.48,0,0,1-3.39-2.18,4.18,4.18,0,0,1,0-3,3.62,3.62,0,0,1,4.15-2.1,2.71,2.71,0,0,1,1.78,1l-.77.59a2.1,2.1,0,0,0-1.73-.82,2.55,2.55,0,0,0-2.65,2.79,2.5,2.5,0,0,0,2.62,2.8" transform="translate(-2.11 -1.73)"/><path class="cls-3" d="M496.91,297.15c0-1.55,0-3.17,0-4.66h.88c0,.2,0,.58,0,.79h0a1.58,1.58,0,0,1,1.79-.88l0,.86a1.33,1.33,0,0,0-1.73,1.45v2.45h-.92" transform="translate(-2.11 -1.73)"/><path class="cls-3" d="M502.39,292.36c1.57,0,2.31,1.06,2.23,2.73h-3.7a1.46,1.46,0,0,0,1.51,1.42,1.55,1.55,0,0,0,1.36-.71l.65.52a2.33,2.33,0,0,1-2,1,2.46,2.46,0,0,1,0-4.92m1.31,2a1.29,1.29,0,0,0-1.87-1.21,1.36,1.36,0,0,0-.9,1.21Z" transform="translate(-2.11 -1.73)"/><path class="cls-3" d="M508.12,293.12a1.69,1.69,0,0,0,0,3.37,1.69,1.69,0,0,0,0-3.37m-.17-.77a2.06,2.06,0,0,1,1.68.83v-3.47h.92v7.44h-.9a4.53,4.53,0,0,0,0-.74,1.94,1.94,0,0,1-1.68.87,2.23,2.23,0,0,1-2.35-2.47A2.25,2.25,0,0,1,508,292.36Z" transform="translate(-2.11 -1.73)"/><path class="cls-3" d="M512.64,290.2a.61.61,0,0,1,.62.6.61.61,0,1,1-.62-.6m.46,6.94h-.92v-4.66h.92v4.66Z" transform="translate(-2.11 -1.73)"/><path class="cls-3" d="M516.2,297.23c-.9,0-1.37-.52-1.36-1.46v-2.53H514v-.76h.9v-1.34h.91v1.34H517v.76h-1.24v2.43c0,.53.16.78.66.79a1.33,1.33,0,0,0,.54-.12l0,.76a2.35,2.35,0,0,1-.79.13" transform="translate(-2.11 -1.73)"/><path class="cls-3" d="M520.93,290.2a.61.61,0,0,1,.62.6.61.61,0,1,1-.62-.6m.46,6.94h-.92v-4.66h.92v4.66Z" transform="translate(-2.11 -1.73)"/><path class="cls-3" d="M522.84,294.33c-.61-1.52,1.15-2.41,2.6-1.78a1.58,1.58,0,0,1,.73.57l-.64.54a1.24,1.24,0,0,0-1.08-.58c-.46,0-.87.15-.87.61,0,.72,1.11.62,1.68.89a1.32,1.32,0,0,1,.94,1.19c.07,1.9-3,1.84-3.74.67l.66-.56a1.51,1.51,0,0,0,1.24.65c.51,0,.92-.17.92-.68,0-.89-1.54-.62-2.13-1.15a1,1,0,0,1-.31-.36" transform="translate(-2.11 -1.73)"/><path class="cls-3" d="M527.2,294.33c-.61-1.52,1.15-2.41,2.6-1.78a1.58,1.58,0,0,1,.73.57l-.64.54a1.24,1.24,0,0,0-1.08-.58c-.46,0-.87.15-.87.61,0,.72,1.11.62,1.68.89a1.32,1.32,0,0,1,.94,1.19c.07,1.9-3,1.84-3.74.67l.66-.56a1.51,1.51,0,0,0,1.24.65c.51,0,.92-.17.92-.68,0-.89-1.54-.62-2.13-1.15a1,1,0,0,1-.31-.36" transform="translate(-2.11 -1.73)"/><path class="cls-3" d="M535.86,292.48c0,1.55,0,3.17,0,4.66H535c0-.2,0-.59-.06-.77a1.71,1.71,0,0,1-1.52.9,1.66,1.66,0,0,1-1.74-1.9v-2.89h.92v2.58c0,.83.24,1.44,1.06,1.44s1.25-.69,1.25-1.53v-2.48h.92" transform="translate(-2.11 -1.73)"/><path class="cls-3" d="M539.57,292.36c1.57,0,2.31,1.06,2.23,2.73h-3.7a1.46,1.46,0,0,0,1.51,1.42,1.55,1.55,0,0,0,1.36-.71l.65.52a2.33,2.33,0,0,1-2,1,2.46,2.46,0,0,1,0-4.92m1.31,2a1.29,1.29,0,0,0-1.87-1.21,1.36,1.36,0,0,0-.9,1.21Z" transform="translate(-2.11 -1.73)"/><path class="cls-3" d="M545.29,293.12a1.69,1.69,0,0,0,0,3.37,1.69,1.69,0,0,0,0-3.37m-.17-.77a2.06,2.06,0,0,1,1.68.83v-3.47h.92v7.44h-.9a4.53,4.53,0,0,0,0-.74,1.94,1.94,0,0,1-1.68.87,2.23,2.23,0,0,1-2.35-2.47A2.25,2.25,0,0,1,545.12,292.36Z" transform="translate(-2.11 -1.73)"/><path class="cls-3" d="M505.69,310.6c0-1.55,0-3.17,0-4.66h.88c0,.2,0,.58,0,.79h0a1.58,1.58,0,0,1,1.79-.88l0,.86a1.33,1.33,0,0,0-1.73,1.45v2.45h-.92" transform="translate(-2.11 -1.73)"/><path class="cls-3" d="M511.17,305.81c1.57,0,2.31,1.06,2.23,2.73h-3.7a1.46,1.46,0,0,0,1.51,1.42,1.55,1.55,0,0,0,1.36-.71l.65.52a2.33,2.33,0,0,1-2,1,2.46,2.46,0,0,1,0-4.92m1.31,2a1.29,1.29,0,0,0-1.87-1.21,1.36,1.36,0,0,0-.9,1.21Z" transform="translate(-2.11 -1.73)"/><path class="cls-3" d="M517.14,309.95a1.69,1.69,0,0,0,0-3.37,1.69,1.69,0,0,0,0,3.37m.16.78a1.94,1.94,0,0,1-1.64-.83h0V313h-.92v-7h.9v.73h0a1.87,1.87,0,0,1,1.68-.86,2.46,2.46,0,0,1,0,4.92Z" transform="translate(-2.11 -1.73)"/><path class="cls-3" d="M523.14,309.95a1.69,1.69,0,1,0-1.55-1.69,1.5,1.5,0,0,0,1.55,1.69m0-4.14a2.46,2.46,0,1,1-2.51,2.45A2.31,2.31,0,0,1,523.14,305.81Z" transform="translate(-2.11 -1.73)"/><path class="cls-3" d="M526.94,310.6c0-1.55,0-3.17,0-4.66h.88c0,.2,0,.58,0,.79h0a1.58,1.58,0,0,1,1.79-.88l0,.86a1.33,1.33,0,0,0-1.73,1.45v2.45h-.92" transform="translate(-2.11 -1.73)"/><path class="cls-3" d="M531.87,310.68c-.9,0-1.37-.52-1.36-1.46v-2.53h-.9v-.76h.9V304.6h.91v1.34h1.24v.76h-1.24v2.43c0,.53.16.78.66.79a1.33,1.33,0,0,0,.54-.12l0,.76a2.35,2.35,0,0,1-.79.13" transform="translate(-2.11 -1.73)"/><path class="cls-2" d="M615.55,400.24V301.61s0,0,0,0V203" transform="translate(-2.11 -1.73)"/><polygon class="cls-3" points="614.96 206.04 611.85 206.04 613.4 201.25 614.96 206.04"/><path class="cls-3" d="M614.4,207.44h2.23l-1.12-3.38Zm3.14.68h-4.06l1.66-5.14h.74Z" transform="translate(-2.11 -1.73)"/><path class="cls-1" d="M640.56,172.56c9.23,0,16.7,6.79,16.7,15.21S649.79,203,640.56,203H590.47c-9.23,0-16.7-6.83-16.7-15.21s7.47-15.21,16.7-15.21Z" transform="translate(-2.11 -1.73)"/><path class="cls-5" d="M640.56,172.56c9.23,0,16.7,6.79,16.7,15.21S649.79,203,640.56,203H590.47c-9.23,0-16.7-6.83-16.7-15.21s7.47-15.21,16.7-15.21Z" transform="translate(-2.11 -1.73)"/><path class="cls-3" d="M583.24,185.69c0-1.73,1.95-2.34,3.53-1.77a2,2,0,0,1,.86.58l-.69.67a1.68,1.68,0,0,0-1.36-.65c-.92,0-1.61.7-1.24,1.6.54.8,2,.74,2.69,1.36a1.75,1.75,0,0,1,.67,1.43c0,1.87-2,2.52-3.69,1.86a2.44,2.44,0,0,1-1-.76l.76-.64a1.94,1.94,0,0,0,1.55.82c1,0,1.76-.83,1.26-1.72s-2-.74-2.75-1.42a1.75,1.75,0,0,1-.57-1.36" transform="translate(-2.11 -1.73)"/><path class="cls-3" d="M590.58,190.24a1.32,1.32,0,0,0,1.35-1.61c-1,0-2.3,0-2.3.89,0,.53.42.72,1,.73m-1.9-.71c0-1.5,1.7-1.53,3.25-1.57.06-.79-.42-1.15-1.15-1.15a1.94,1.94,0,0,0-1.33.54l-.49-.59a2.75,2.75,0,0,1,1.91-.7,1.73,1.73,0,0,1,1.95,1.83,29.06,29.06,0,0,0,.07,3H592a3.1,3.1,0,0,1-.08-.67h0a1.79,1.79,0,0,1-1.56.79C589.41,191,588.68,190.52,588.68,189.53Z" transform="translate(-2.11 -1.73)"/><polyline class="cls-3" points="593.18 189.11 592.26 189.11 592.26 185.39 592.26 181.68 593.18 181.68 593.18 185.39 593.18 189.11"/><path class="cls-3" d="M599,186.06c1.57,0,2.31,1.06,2.23,2.73h-3.7a1.46,1.46,0,0,0,1.51,1.42,1.55,1.55,0,0,0,1.36-.71l.65.52a2.33,2.33,0,0,1-2,1,2.46,2.46,0,0,1,0-4.92m1.31,2a1.29,1.29,0,0,0-1.87-1.21,1.36,1.36,0,0,0-.9,1.21Z" transform="translate(-2.11 -1.73)"/><path class="cls-3" d="M606.61,190.24a1.32,1.32,0,0,0,1.35-1.61c-1,0-2.3,0-2.3.89,0,.53.42.72,1,.73m-1.9-.71c0-1.5,1.7-1.53,3.25-1.57.06-.79-.42-1.15-1.15-1.15a1.94,1.94,0,0,0-1.33.54l-.49-.59a2.75,2.75,0,0,1,1.91-.7,1.73,1.73,0,0,1,1.95,1.83,29.06,29.06,0,0,0,.07,3h-.84a3.1,3.1,0,0,1-.08-.67h0a1.79,1.79,0,0,1-1.56.79C605.44,191,604.71,190.52,604.71,189.53Z" transform="translate(-2.11 -1.73)"/><path class="cls-3" d="M612.83,190.2a1.69,1.69,0,0,0,0-3.37,1.69,1.69,0,0,0,0,3.37m.16.78a1.94,1.94,0,0,1-1.64-.83h0v3.06h-.92v-7h.9v.73h0a1.87,1.87,0,0,1,1.68-.86,2.46,2.46,0,0,1,0,4.92Z" transform="translate(-2.11 -1.73)"/><path class="cls-3" d="M619.06,190.2a1.69,1.69,0,0,0,0-3.37,1.69,1.69,0,0,0,0,3.37m.16.78a1.94,1.94,0,0,1-1.64-.83h0v3.06h-.92v-7h.9v.73h0a1.87,1.87,0,0,1,1.68-.86,2.46,2.46,0,0,1,0,4.92Z" transform="translate(-2.11 -1.73)"/><path class="cls-3" d="M622.86,190.85c0-1.55,0-3.17,0-4.66h.88c0,.2,0,.58,0,.79h0a1.58,1.58,0,0,1,1.79-.88l0,.86a1.33,1.33,0,0,0-1.73,1.45v2.45h-.92" transform="translate(-2.11 -1.73)"/><path class="cls-3" d="M628.45,190.2a1.69,1.69,0,1,0-1.55-1.69,1.5,1.5,0,0,0,1.55,1.69m0-4.14a2.46,2.46,0,1,1-2.51,2.45A2.31,2.31,0,0,1,628.45,186.06Z" transform="translate(-2.11 -1.73)"/><path class="cls-3" d="M634.44,190.85h-1l-1.9-4.66h1c.46,1.22.9,2.48,1.39,3.67l1.38-3.67h1" transform="translate(-2.11 -1.73)"/><path class="cls-3" d="M639.31,186.06c1.57,0,2.31,1.06,2.23,2.73h-3.7a1.46,1.46,0,0,0,1.51,1.42,1.55,1.55,0,0,0,1.36-.71l.65.52a2.33,2.33,0,0,1-2,1,2.46,2.46,0,0,1,0-4.92m1.31,2a1.29,1.29,0,0,0-1.87-1.21,1.36,1.36,0,0,0-.9,1.21Z" transform="translate(-2.11 -1.73)"/><path class="cls-3" d="M645,186.82a1.69,1.69,0,0,0,0,3.37,1.69,1.69,0,0,0,0-3.37m-.17-.77a2.06,2.06,0,0,1,1.68.83v-3.47h.92v7.44h-.9a4.53,4.53,0,0,0,0-.74,1.94,1.94,0,0,1-1.68.87,2.23,2.23,0,0,1-2.35-2.47A2.25,2.25,0,0,1,644.86,186.06Z" transform="translate(-2.11 -1.73)"/><path class="cls-2" d="M280.86,405.71v-5.48a1.72,1.72,0,0,1,1.69-1.69h39.31a1.67,1.67,0,0,0,1.69-1.69V189.46a1.67,1.67,0,0,1,1.69-1.69h37.15" transform="translate(-2.11 -1.73)"/><polygon class="cls-3" points="279.09 404.99 278.85 404.99 278.41 404.62 278.41 403.98 279.09 403.98 279.09 404.99"/><polygon class="cls-3" points="360.27 186.03 355.44 187.59 355.44 184.45 360.27 186.03"/><path class="cls-3" d="M357.89,188.85l3.38-1.08-3.38-1.12Zm4.5-1.45v.71l-5.17,1.69v-4.06Z" transform="translate(-2.11 -1.73)"/><rect class="cls-6" x="298.25" y="290.17" width="46.34" height="13.45"/><path class="cls-3" d="M305.14,299.72c0-1.37-1.58-1.17-3-1.17v2.37c1.38,0,2.91.15,3-1.2m-.31-3.08c0-1.19-1.43-1-2.64-1v2.12C303.43,297.73,304.82,297.87,304.82,296.64Zm1.3,3.13c0,2.23-2.61,2-4.91,2v-7h2.4c1.25,0,2.15.49,2.18,1.76a1.58,1.58,0,0,1-1.22,1.53A1.6,1.6,0,0,1,306.12,299.77Z" transform="translate(-2.11 -1.73)"/><path class="cls-3" d="M309,301.13a1.32,1.32,0,0,0,1.35-1.61c-1,0-2.3,0-2.3.89,0,.53.42.72,1,.73m-1.9-.71c0-1.5,1.7-1.53,3.25-1.57.06-.79-.42-1.15-1.15-1.15a1.94,1.94,0,0,0-1.33.54l-.49-.59a2.75,2.75,0,0,1,1.91-.7,1.73,1.73,0,0,1,1.95,1.83,29.05,29.05,0,0,0,.07,3h-.84a3.1,3.1,0,0,1-.08-.67h0a1.79,1.79,0,0,1-1.56.79C307.86,301.86,307.13,301.42,307.13,300.43Z" transform="translate(-2.11 -1.73)"/><path class="cls-3" d="M315,297.72a1.69,1.69,0,0,0,0,3.37,1.69,1.69,0,0,0,0-3.37m-.17-.77a2.06,2.06,0,0,1,1.68.83v-3.47h.92v7.44h-.9a4.53,4.53,0,0,0,0-.74,1.94,1.94,0,0,1-1.68.87,2.23,2.23,0,0,1-2.35-2.47A2.25,2.25,0,0,1,314.83,297Z" transform="translate(-2.11 -1.73)"/><path class="cls-3" d="M321.24,299.41a2.28,2.28,0,0,1,2.49-2.46,2.21,2.21,0,0,1,1.75.77l-.67.54a1.28,1.28,0,0,0-1.07-.53,1.69,1.69,0,0,0,0,3.36,1.33,1.33,0,0,0,1.12-.51l.62.56a2.15,2.15,0,0,1-1.74.73,2.31,2.31,0,0,1-2.51-2.46" transform="translate(-2.11 -1.73)"/><path class="cls-3" d="M326.4,301.74c0-1.55,0-3.17,0-4.66h.88c0,.2,0,.58,0,.79h0a1.58,1.58,0,0,1,1.79-.88l0,.86a1.33,1.33,0,0,0-1.73,1.45v2.45h-.92" transform="translate(-2.11 -1.73)"/><path class="cls-3" d="M331.89,297c1.57,0,2.31,1.06,2.23,2.73h-3.7a1.46,1.46,0,0,0,1.51,1.42,1.55,1.55,0,0,0,1.36-.71l.65.52a2.33,2.33,0,0,1-2,1,2.46,2.46,0,0,1,0-4.92m1.31,2a1.29,1.29,0,0,0-1.87-1.21,1.36,1.36,0,0,0-.9,1.21Z" transform="translate(-2.11 -1.73)"/><path class="cls-3" d="M337.62,297.72a1.69,1.69,0,0,0,0,3.37,1.69,1.69,0,0,0,0-3.37m-.17-.77a2.06,2.06,0,0,1,1.68.83v-3.47h.92v7.44h-.9a4.53,4.53,0,0,0,0-.74,1.94,1.94,0,0,1-1.68.87,2.23,2.23,0,0,1-2.35-2.47A2.25,2.25,0,0,1,337.45,297Z" transform="translate(-2.11 -1.73)"/><path class="cls-3" d="M342.14,294.8a.61.61,0,0,1,.62.6.61.61,0,1,1-.62-.6m.46,6.94h-.92v-4.66h.92v4.66Z" transform="translate(-2.11 -1.73)"/><path class="cls-3" d="M345.7,301.82c-.9,0-1.37-.52-1.36-1.46v-2.53h-.9v-.76h.9v-1.34h.91v1.34h1.24v.76h-1.24v2.43c0,.53.16.78.66.79a1.33,1.33,0,0,0,.54-.12l0,.76a2.35,2.35,0,0,1-.79.13" transform="translate(-2.11 -1.73)"/><path class="cls-1" d="M423.23,172.56a15.21,15.21,0,0,1,0,30.42H377.6a15.21,15.21,0,0,1,0-30.42Z" transform="translate(-2.11 -1.73)"/><path class="cls-5" d="M423.23,172.56a15.21,15.21,0,0,1,0,30.42H377.6a15.21,15.21,0,0,1,0-30.42Z" transform="translate(-2.11 -1.73)"/><path class="cls-3" d="M382.67,179c0-1.73,1.95-2.34,3.53-1.77a2,2,0,0,1,.86.58l-.69.67a1.68,1.68,0,0,0-1.36-.65c-.92,0-1.61.7-1.24,1.6.54.8,2,.74,2.69,1.36a1.75,1.75,0,0,1,.67,1.43c0,1.87-2,2.52-3.69,1.86a2.44,2.44,0,0,1-1-.76l.76-.64a1.94,1.94,0,0,0,1.55.82c1,0,1.76-.83,1.26-1.72s-2-.74-2.75-1.42a1.75,1.75,0,0,1-.57-1.36" transform="translate(-2.11 -1.73)"/><path class="cls-3" d="M390,183.51a1.32,1.32,0,0,0,1.35-1.61c-1,0-2.3,0-2.3.89,0,.53.42.72,1,.73m-1.9-.71c0-1.5,1.7-1.53,3.25-1.57.06-.79-.42-1.15-1.15-1.15a1.94,1.94,0,0,0-1.33.54l-.49-.59a2.75,2.75,0,0,1,1.91-.7,1.73,1.73,0,0,1,1.95,1.83,29.05,29.05,0,0,0,.07,3h-.84a3.1,3.1,0,0,1-.08-.67h0a1.79,1.79,0,0,1-1.56.79C388.84,184.24,388.11,183.79,388.11,182.8Z" transform="translate(-2.11 -1.73)"/><polyline class="cls-3" points="392.61 182.38 391.69 182.38 391.69 178.67 391.69 174.95 392.61 174.95 392.61 178.67 392.61 182.38"/><path class="cls-3" d="M398.45,179.33c1.57,0,2.31,1.06,2.23,2.73H397a1.46,1.46,0,0,0,1.51,1.42,1.55,1.55,0,0,0,1.36-.71l.65.52a2.33,2.33,0,0,1-2,1,2.46,2.46,0,0,1,0-4.92m1.31,2a1.29,1.29,0,0,0-1.87-1.21,1.36,1.36,0,0,0-.9,1.21Z" transform="translate(-2.11 -1.73)"/><path class="cls-3" d="M404.49,184.12c0-1.55,0-3.17,0-4.66h.88c0,.2,0,.55,0,.77h0a1.63,1.63,0,0,1,1.51-.9c1.16,0,1.74.74,1.74,1.9v2.89h-.92v-2.59c0-.83-.24-1.43-1.06-1.43s-1.25.69-1.25,1.53v2.48h-.92" transform="translate(-2.11 -1.73)"/><path class="cls-3" d="M412.42,183.47a1.69,1.69,0,1,0-1.55-1.69,1.5,1.5,0,0,0,1.55,1.69m0-4.14a2.46,2.46,0,1,1-2.51,2.45A2.31,2.31,0,0,1,412.42,179.33Z" transform="translate(-2.11 -1.73)"/><path class="cls-3" d="M417.7,184.2c-.9,0-1.37-.52-1.36-1.46v-2.53h-.9v-.76h.9v-1.34h.91v1.34h1.24v.76h-1.24v2.43c0,.53.16.78.66.79a1.33,1.33,0,0,0,.54-.12l0,.76a2.35,2.35,0,0,1-.79.13" transform="translate(-2.11 -1.73)"/><path class="cls-3" d="M380.66,197a1.32,1.32,0,0,0,1.35-1.61c-1,0-2.3,0-2.3.89,0,.53.42.72,1,.73m-1.9-.71c0-1.5,1.7-1.53,3.25-1.57.06-.79-.42-1.15-1.15-1.15a1.94,1.94,0,0,0-1.33.54l-.49-.59a2.75,2.75,0,0,1,1.91-.7,1.73,1.73,0,0,1,1.95,1.83,29.05,29.05,0,0,0,.07,3h-.84a3.1,3.1,0,0,1-.08-.67h0a1.79,1.79,0,0,1-1.56.79C379.49,197.69,378.76,197.25,378.76,196.25Z" transform="translate(-2.11 -1.73)"/><path class="cls-3" d="M386.88,196.92a1.69,1.69,0,0,0,0-3.37,1.69,1.69,0,0,0,0,3.37m.16.78a1.94,1.94,0,0,1-1.64-.83h0v3.06h-.92v-7h.9v.73h0a1.87,1.87,0,0,1,1.68-.86,2.46,2.46,0,0,1,0,4.92Z" transform="translate(-2.11 -1.73)"/><path class="cls-3" d="M393.11,196.92a1.69,1.69,0,0,0,0-3.37,1.69,1.69,0,0,0,0,3.37m.16.78a1.94,1.94,0,0,1-1.64-.83h0v3.06h-.92v-7h.9v.73h0a1.87,1.87,0,0,1,1.68-.86,2.46,2.46,0,0,1,0,4.92Z" transform="translate(-2.11 -1.73)"/><path class="cls-3" d="M396.91,197.57c0-1.55,0-3.17,0-4.66h.88c0,.2,0,.58,0,.79h0a1.58,1.58,0,0,1,1.79-.88l0,.86a1.33,1.33,0,0,0-1.73,1.45v2.45h-.92" transform="translate(-2.11 -1.73)"/><path class="cls-3" d="M402.49,196.92a1.69,1.69,0,1,0-1.55-1.69,1.5,1.5,0,0,0,1.55,1.69m0-4.14a2.46,2.46,0,1,1-2.51,2.45A2.31,2.31,0,0,1,402.49,192.78Z" transform="translate(-2.11 -1.73)"/><path class="cls-3" d="M408.48,197.57h-1l-1.9-4.66h1c.46,1.22.9,2.48,1.39,3.67l1.38-3.67h1" transform="translate(-2.11 -1.73)"/><path class="cls-3" d="M413.35,192.78c1.57,0,2.31,1.06,2.23,2.73h-3.7a1.46,1.46,0,0,0,1.51,1.42,1.55,1.55,0,0,0,1.36-.71l.65.52a2.33,2.33,0,0,1-2,1,2.46,2.46,0,0,1,0-4.92m1.31,2a1.29,1.29,0,0,0-1.87-1.21,1.36,1.36,0,0,0-.9,1.21Z" transform="translate(-2.11 -1.73)"/><path class="cls-3" d="M419.08,193.55a1.69,1.69,0,0,0,0,3.37,1.69,1.69,0,0,0,0-3.37m-.17-.77a2.06,2.06,0,0,1,1.68.83v-3.47h.92v7.44h-.9a4.53,4.53,0,0,0,0-.74,1.94,1.94,0,0,1-1.68.87,2.23,2.23,0,0,1-2.35-2.47A2.25,2.25,0,0,1,418.91,192.78Z" transform="translate(-2.11 -1.73)"/><line class="cls-2" x1="448.19" y1="418.78" x2="481.65" y2="418.78"/><polygon class="cls-3" points="448.19 419.12 447.75 419.12 448.19 418.78 447.75 418.44 448.19 418.44 448.19 419.12"/><polygon class="cls-3" points="481.65 418.78 476.82 420.34 476.82 417.23 481.65 418.78"/><path class="cls-3" d="M479.27,421.63l3.41-1.12-3.41-1.08Zm4.83-1.35v.47l-5.51,1.79v-4.06Z" transform="translate(-2.11 -1.73)"/><rect class="cls-6" x="454.22" y="415.13" width="15.97" height="7.3"/><path class="cls-4" d="M227.19,168.84h68.28v40.22c-11.39-6.73-18.49-6.73-22.78-6.73-6.83,0-15.92,6.73-22.75,6.73-4.26,0-11.39,0-22.75-6.73Z" transform="translate(-2.11 -1.73)"/><path class="cls-5" d="M227.19,168.84h68.28v40.22c-11.39-6.73-18.49-6.73-22.78-6.73-6.83,0-15.92,6.73-22.75,6.73-4.26,0-11.39,0-22.75-6.73Z" transform="translate(-2.11 -1.73)"/><path class="cls-3" d="M239.91,188.12a2.8,2.8,0,1,0-2.63-2.79,2.52,2.52,0,0,0,2.63,2.79m3.42-4.28a4.07,4.07,0,0,1,0,3,3.76,3.76,0,0,1-6.83,0,4.18,4.18,0,0,1,0-3,3.77,3.77,0,0,1,6.83,0Z" transform="translate(-2.11 -1.73)"/><path class="cls-3" d="M244.89,188.82c0-1.55,0-3.17,0-4.66h.88c0,.2,0,.58,0,.79h0a1.58,1.58,0,0,1,1.79-.88l0,.86a1.33,1.33,0,0,0-1.73,1.45v2.45h-.92" transform="translate(-2.11 -1.73)"/><path class="cls-3" d="M250.46,184.79a1.69,1.69,0,0,0,0,3.37,1.69,1.69,0,0,0,0-3.37m-.17-.77a2.06,2.06,0,0,1,1.68.83v-3.47h.92v7.44H252a4.53,4.53,0,0,0,0-.74,1.94,1.94,0,0,1-1.68.87,2.23,2.23,0,0,1-2.35-2.47A2.25,2.25,0,0,1,250.3,184Z" transform="translate(-2.11 -1.73)"/><path class="cls-3" d="M256.62,184c1.57,0,2.31,1.06,2.23,2.73h-3.7a1.46,1.46,0,0,0,1.51,1.42,1.55,1.55,0,0,0,1.36-.71l.65.52a2.33,2.33,0,0,1-2,1,2.46,2.46,0,0,1,0-4.92m1.31,2a1.29,1.29,0,0,0-1.87-1.21,1.36,1.36,0,0,0-.9,1.21Z" transform="translate(-2.11 -1.73)"/><path class="cls-3" d="M260.15,188.82c0-1.55,0-3.17,0-4.66H261c0,.2,0,.58,0,.79h0a1.58,1.58,0,0,1,1.79-.88l0,.86a1.33,1.33,0,0,0-1.73,1.45v2.45h-.92" transform="translate(-2.11 -1.73)"/><path class="cls-3" d="M268.18,182.06c-1,0-.81,1.13-.83,2.1h1.08v.76h-1.08v3.9h-.92v-3.9h-.92v-.76h.92v-1c-.06-1.41.9-2.14,2.32-1.85l-.11.8a1.63,1.63,0,0,0-.46-.07" transform="translate(-2.11 -1.73)"/><path class="cls-3" d="M271.5,188.17a1.69,1.69,0,1,0-1.55-1.69,1.5,1.5,0,0,0,1.55,1.69m0-4.14a2.46,2.46,0,1,1-2.51,2.45A2.31,2.31,0,0,1,271.5,184Z" transform="translate(-2.11 -1.73)"/><path class="cls-3" d="M275.3,188.82c0-1.55,0-3.17,0-4.66h.88c0,.2,0,.58,0,.79h0a1.58,1.58,0,0,1,1.79-.88l0,.86a1.33,1.33,0,0,0-1.73,1.45v2.45h-.92" transform="translate(-2.11 -1.73)"/><path class="cls-3" d="M279.76,184.92a1.63,1.63,0,0,1,1.49-.9,1.46,1.46,0,0,1,1.45.93,1.71,1.71,0,0,1,1.58-.93c1.16,0,1.74.74,1.74,1.9v2.89h-.92v-2.59c0-.8-.24-1.43-1-1.43-1.68,0-1.06,2.4-1.18,4H282V186c0-.74-.26-1.24-1-1.24s-1.19.71-1.19,1.53v2.48h-.92c0-1.55,0-3.17,0-4.66h.88c0,.2,0,.55,0,.77h0" transform="translate(-2.11 -1.73)"/><path class="cls-3" d="M468,422.92a2.8,2.8,0,1,0-2.63-2.79,2.52,2.52,0,0,0,2.63,2.79m3.42-4.28a4.07,4.07,0,0,1,0,3,3.76,3.76,0,0,1-6.83,0,4.18,4.18,0,0,1,0-3,3.77,3.77,0,0,1,6.83,0Z" transform="translate(-2.11 -1.73)"/><path class="cls-3" d="M462.22,422.27h0v-5.59h1v7H462L458.29,418h0v5.71h-1v-7h1.27Z" transform="translate(-2.11 -1.73)"/></svg>